<svg xmlns="http://www.w3.org/2000/svg" width="210mm" height="100mm" viewBox="0 0 210 100"><defs><marker orient="auto" id="a" overflow="visible"><path d="M-10 0l-4 4L0 0l-14-4z" fill="#00f" fill-rule="evenodd" stroke="#00f" stroke-width="1.066"/></marker><marker orient="auto" id="b" overflow="visible"><path d="M-10 0l-4 4L0 0l-14-4z" fill="#00f" fill-rule="evenodd" stroke="#00f" stroke-width="1.066"/></marker><marker orient="auto" id="c" overflow="visible"><path d="M-10 0l-4 4L0 0l-14-4z" fill="#00f" fill-rule="evenodd" stroke="#00f" stroke-width="1.066"/></marker><marker orient="auto" id="d" overflow="visible"><path d="M-10 0l-4 4L0 0l-14-4z" fill="#00f" fill-rule="evenodd" stroke="#00f" stroke-width="1.066"/></marker><marker orient="auto" id="h" overflow="visible"><path d="M-10 0l-4 4L0 0l-14-4z" fill="#00f" fill-rule="evenodd" stroke="#00f" stroke-width="1.066"/></marker><marker orient="auto" id="g" overflow="visible"><path d="M-10 0l-4 4L0 0l-14-4z" fill="#00f" fill-rule="evenodd" stroke="#00f" stroke-width="1.066"/></marker><marker orient="auto" id="f" overflow="visible"><path d="M-10 0l-4 4L0 0l-14-4z" fill="#00f" fill-rule="evenodd" stroke="#00f" stroke-width="1.066"/></marker><marker orient="auto" id="e" overflow="visible"><path d="M-10 0l-4 4L0 0l-14-4z" fill="#00f" fill-rule="evenodd" stroke="#00f" stroke-width="1.066"/></marker></defs><g transform="translate(0 -197)"><rect width="71.06" height="71.06" x="13.985" y="205.522" ry="0" stroke="#00f" stroke-width=".265" fill="none"/><circle cx="57.75" cy="215.25" r=".711" fill="red" stroke="red" stroke-width=".078" paint-order="stroke fill markers"/><circle cx="76.75" cy="234.25" r=".711" fill="red" stroke="red" stroke-width=".078"/><text style="line-height:1.25" x="34.421" y="286.808" font-weight="400" font-size="4.233" font-family="sans-serif" letter-spacing="0" word-spacing="0" stroke-width=".265"><tspan x="34.421" y="286.808">На плоскости</tspan></text><path d="M33.271 263.25a.521.521 0 0 1-.505.52.521.521 0 0 1-.536-.487.521.521 0 0 1 .47-.552.521.521 0 0 1 .567.453l-.517.066z" fill="red" stroke="red" stroke-width=".458"/><path fill="none" stroke="#00f" stroke-width=".271" d="M139.135 215.135h7.729v7.729h-7.729zm15 22h7.729v7.729h-7.729z"/><circle cy="241" cx="134" r="3.865" fill="none" stroke="#00f" stroke-width=".271"/><circle cy="241" cx="142" r="3.865" fill="none" stroke="#ff0006" stroke-width=".271"/><circle cy="241" cx="150" r="3.865" fill="none" stroke="#00f" stroke-width=".271"/><circle cy="263" cx="149" r="3.865" fill="none" stroke="#00f" stroke-width=".271"/><circle cy="263" cx="157" r="3.865" fill="none" stroke="red" stroke-width=".271"/><circle cy="263" cx="165" r="3.865" fill="none" stroke="#00f" stroke-width=".271"/><circle cy="263" cx="173" r="3.865" fill="none" stroke="red" stroke-width=".271"/><path d="M143 223l-9 14" fill="none" stroke="#00f" stroke-width=".265" marker-end="url(#a)"/><path d="M143 223l-1 14" fill="none" stroke="#00f" stroke-width=".265" marker-end="url(#b)"/><path d="M143 223l6.701 13.487" fill="none" stroke="#00f" stroke-width=".25" marker-end="url(#c)"/><path d="M143 223l15 14" fill="none" stroke="#00f" stroke-width=".25" marker-end="url(#d)"/><path d="M158.094 245.042l-9 14" fill="none" stroke="#00f" stroke-width=".265" marker-end="url(#e)"/><path d="M158.094 245.042l-1 14" fill="none" stroke="#00f" stroke-width=".265" marker-end="url(#f)"/><path d="M158.094 245.042l6.7 13.487" fill="none" stroke="#00f" stroke-width=".25" marker-end="url(#g)"/><path d="M158.094 245.042l15 14" fill="none" stroke="#00f" stroke-width=".25" marker-end="url(#h)"/><path d="M76.75 234.25s.009 37.114 37.088 43.911c23.58 4.323 41.096-2.985 50.724-8.878C170.073 265.91 173 263 173 263" fill="none" stroke="#000" stroke-width=".264" stroke-dasharray="1.05599999,1.05599999"/><path d="M57.75 215.25c16.317 54.087 30.232 64.29 62.747 62.411 13.282-.768 21.803-3.355 27.238-6.146C155.605 267.472 157 263 157 263" fill="none" stroke="#000" stroke-width=".266" stroke-dasharray="1.06399998,1.06399997999999996" paint-order="markers fill stroke"/><text style="line-height:1.25" x="141.089" y="286.808" font-weight="400" font-size="10.583" font-family="sans-serif" letter-spacing="0" word-spacing="0" stroke-width=".265"><tspan x="141.089" y="286.808" font-size="4.233">В памяти</tspan></text><path d="M84.838 241.052l-70.985-.181" fill="none" stroke="#00f" stroke-width=".373"/><path d="M49.515 276.847l.189-71.457" fill="none" stroke="#00f" stroke-width=".375"/><path d="M85.177 223.295l-35.568-.074" fill="none" stroke="#00f" stroke-width=".265"/><path d="M67.28 240.988l.189-35.598" fill="none" stroke="#00f" stroke-width=".373"/><path d="M33.267 263.184c78.802-2.229 91.503-3.754 99.285-8.458 11.864-8.137 9.836-13.665 9.836-13.665" fill="none" stroke="#000" stroke-width=".265" stroke-dasharray="1.06016807,1.06016807"/></g></svg>