<svg xmlns="http://www.w3.org/2000/svg" width="210mm" height="100mm" viewBox="0 0 210 100"><defs><marker orient="auto" id="a" overflow="visible"><path d="M-10 0l-4 4L0 0l-14-4z" fill="#f60000" fill-rule="evenodd" stroke="#f60000" stroke-width="1.066"/></marker></defs><g transform="translate(0 -197)"><rect width="69.74" height="69.74" x="15.13" y="207.13" ry="0" stroke="#00f" stroke-width=".26" fill="none"/><ellipse cx="81.666" cy="208.155" rx=".521" ry=".521" fill="red" stroke="red" stroke-width=".458"/><ellipse cx="83.845" cy="210.334" rx=".521" ry=".521" fill="red" stroke="red" stroke-width=".458"/><path d="M95 242.11h19.4" fill="none" stroke="#f60000" stroke-width=".286" marker-end="url(#a)"/><text style="line-height:1.25" x="23.081" y="287.942" font-weight="400" font-size="4.233" font-family="sans-serif" letter-spacing="0" word-spacing="0" stroke-width=".265"><tspan x="23.081" y="287.942">Обычное квадродерево</tspan></text><ellipse cx="34.008" cy="263.668" rx=".521" ry=".521" fill="red" stroke="red" stroke-width=".458"/><text style="line-height:1.25" x="139.379" y="288.152" font-weight="400" font-size="10.583" font-family="sans-serif" letter-spacing="0" word-spacing="0" stroke-width=".265"><tspan x="139.379" y="288.152" font-size="4.233">Сжатое квадродерево</tspan></text><path d="M50 276.87v-69.74" fill="none" stroke="#00f" stroke-width=".26"/><path d="M67.5 241.875l-.02-34.878" fill="none" stroke="#00f" stroke-width=".24"/><path d="M15 242.002h70" fill="none" stroke="#00f" stroke-width=".265"/><path d="M84.742 215.847H67.554" fill="none" stroke="#00f" stroke-width=".258"/><path d="M76.152 224.445l-.015-17.455" fill="none" stroke="#00f" stroke-width=".245"/><path d="M80.511 207v8.977" fill="none" stroke="#00f" stroke-width=".265"/><path d="M84.726 211.62H76.22" fill="none" stroke="#00f" stroke-width=".259"/><path d="M82.69 207v4.618M85 209.31h-4.618" fill="none" stroke="#00f" stroke-width=".265"/><path d="M49.921 224.576l34.878-.02" fill="none" stroke="#00f" stroke-width=".24"/><rect width="69.74" height="69.74" x="125.13" y="207.13" ry="0" stroke="#00f" stroke-width=".26" fill="none"/><ellipse cx="191.665" cy="208.155" rx=".521" ry=".521" fill="red" stroke="red" stroke-width=".458"/><ellipse cx="193.844" cy="210.334" rx=".521" ry=".521" fill="red" stroke="red" stroke-width=".458"/><ellipse cx="144.008" cy="263.667" rx=".521" ry=".521" fill="red" stroke="red" stroke-width=".458"/><path d="M160 276.87v-69.74" fill="none" stroke="#00f" stroke-width=".26"/><path d="M125 242.002h70" fill="none" stroke="#00f" stroke-width=".265"/><path d="M190.512 207v4.74" fill="none" stroke="#00f" stroke-width=".192"/><path d="M194.726 211.62h-4.323" fill="none" stroke="#00f" stroke-width=".185"/><path d="M192.691 207v4.618" fill="none" stroke="#00f" stroke-width=".265"/><path d="M195 209.308h-4.455" fill="none" stroke="#00f" stroke-width=".26"/></g></svg>