<?xml version="1.0" encoding="UTF-8" standalone="no"?>
<!-- Created with Inkscape (http://www.inkscape.org/) -->

<svg
   xmlns:osb="http://www.openswatchbook.org/uri/2009/osb"
   xmlns:dc="http://purl.org/dc/elements/1.1/"
   xmlns:cc="http://creativecommons.org/ns#"
   xmlns:rdf="http://www.w3.org/1999/02/22-rdf-syntax-ns#"
   xmlns:svg="http://www.w3.org/2000/svg"
   xmlns="http://www.w3.org/2000/svg"
   xmlns:sodipodi="http://sodipodi.sourceforge.net/DTD/sodipodi-0.dtd"
   xmlns:inkscape="http://www.inkscape.org/namespaces/inkscape"
   width="297mm"
   height="150mm"
   viewBox="0 0 297 150"
   version="1.1"
   id="svg8"
   sodipodi:docname="1_slide.svg"
   inkscape:version="0.92.2 (5c3e80d, 2017-08-06)">
  <defs
     id="defs2">
    <linearGradient
       id="linearGradient4534"
       osb:paint="solid">
      <stop
         style="stop-color:#000000;stop-opacity:1;"
         offset="0"
         id="stop4532" />
    </linearGradient>
  </defs>
  <sodipodi:namedview
     id="base"
     pagecolor="#ffffff"
     bordercolor="#666666"
     borderopacity="1.0"
     inkscape:pageopacity="0.0"
     inkscape:pageshadow="2"
     inkscape:zoom="1.0314822"
     inkscape:cx="613.78057"
     inkscape:cy="271.66022"
     inkscape:document-units="mm"
     inkscape:current-layer="layer1"
     showgrid="false"
     showborder="true"
     showguides="true"
     inkscape:guide-bbox="true"
     inkscape:window-width="1920"
     inkscape:window-height="1018"
     inkscape:window-x="0"
     inkscape:window-y="34"
     inkscape:window-maximized="1"
     units="mm" />
  <metadata
     id="metadata5">
    <rdf:RDF>
      <cc:Work
         rdf:about="">
        <dc:format>image/svg+xml</dc:format>
        <dc:type
           rdf:resource="http://purl.org/dc/dcmitype/StillImage" />
        <dc:title></dc:title>
      </cc:Work>
    </rdf:RDF>
  </metadata>
  <g
     inkscape:label="Layer 1"
     inkscape:groupmode="layer"
     id="layer1"
     transform="translate(0,-147)">
    <rect
       id="rect3715"
       width="90.871017"
       height="22.243059"
       x="112.7638"
       y="192.70679"
       style="fill:#000000;fill-opacity:0.00961537;stroke:#ff0000;stroke-width:0.60569119;stroke-miterlimit:4;stroke-dasharray:none;stroke-opacity:0.99038463;image-rendering:auto" />
    <rect
       id="rect3715-3"
       width="136.68582"
       height="23.37463"
       x="88.71225"
       y="204.83556"
       style="fill:#000000;fill-opacity:0.00961537;stroke:#000000;stroke-width:0.76150978;stroke-miterlimit:4;stroke-dasharray:none;stroke-opacity:1;image-rendering:auto" />
    <rect
       id="rect3715-3-5"
       width="102.2241"
       height="34.820278"
       x="54.121124"
       y="183.30109"
       style="fill:#000000;fill-opacity:0.00961537;stroke:#000000;stroke-width:0.85418403;stroke-miterlimit:4;stroke-dasharray:none;stroke-opacity:1;image-rendering:auto" />
    <rect
       id="rect3715-3-3"
       width="123.99689"
       height="20.839958"
       x="108.03433"
       y="176.41777"
       style="fill:#000000;fill-opacity:0.00961537;stroke:#000000;stroke-width:0.68484932;stroke-miterlimit:4;stroke-dasharray:none;stroke-opacity:1;image-rendering:auto" />
    <g
       id="g6402"
       transform="matrix(0.99099738,0,0,0.70000821,-0.25299502,88.858002)">
      <path
         inkscape:connector-curvature="0"
         sodipodi:nodetypes="cc"
         id="path2623"
         d="M 1.1366976,189.8584 H 298.40343"
         style="fill:none;fill-rule:evenodd;stroke:#000000;stroke-width:1.80095744;stroke-linecap:round;stroke-linejoin:round;stroke-miterlimit:4;stroke-dasharray:none;stroke-opacity:1;marker-start:none;marker-mid:none;marker-end:none" />
      <path
         inkscape:connector-curvature="0"
         sodipodi:nodetypes="cc"
         id="path2625"
         d="M 149.77007,295.8633 V 83.853496"
         style="fill:none;fill-rule:evenodd;stroke:#000000;stroke-width:1.20063829;stroke-linecap:round;stroke-linejoin:round;stroke-miterlimit:4;stroke-dasharray:none;stroke-opacity:1;marker-start:none;marker-end:none" />
      <path
         inkscape:connector-curvature="0"
         id="path9048"
         d="m 146.63854,103.47048 3.13153,-19.616984 3.13136,19.616984"
         style="fill:none;fill-rule:evenodd;stroke:#000000;stroke-width:1.20063829;stroke-linecap:round;stroke-linejoin:round;stroke-miterlimit:4;stroke-dasharray:none;stroke-opacity:1" />
      <path
         inkscape:connector-curvature="0"
         id="path9050"
         d="m 285.08004,185.04844 13.32339,4.80996 -13.32339,4.80832"
         style="fill:none;fill-rule:evenodd;stroke:#000000;stroke-width:1.80095744;stroke-linecap:round;stroke-linejoin:round;stroke-miterlimit:4;stroke-dasharray:none;stroke-opacity:1" />
      <path
         inkscape:connector-curvature="0"
         id="text22363"
         d="m 295.21825,201.53254 c -0.15688,0.14625 -0.29545,0.27172 -0.41582,0.37651 -0.12035,0.10468 -0.22888,0.19004 -0.32554,0.2559 -0.0967,0.0658 -0.18422,0.11462 -0.26262,0.14625 -0.0783,0.0317 -0.15228,0.0478 -0.22159,0.0478 -0.10941,-3e-5 -0.21977,-0.0768 -0.33103,-0.23037 -0.11135,-0.1535 -0.22066,-0.35824 -0.32825,-0.61414 -0.10765,-0.25588 -0.21522,-0.55076 -0.32282,-0.88465 -0.10765,-0.33386 -0.21247,-0.68114 -0.31462,-1.04184 -0.0838,0.15113 -0.17963,0.32046 -0.28722,0.50812 -0.10765,0.1877 -0.22251,0.3887 -0.34471,0.60316 -0.1221,0.21459 -0.24892,0.44234 -0.38023,0.68362 -0.13128,0.24124 -0.26081,0.49105 -0.38849,0.74938 -0.13498,0.0245 -0.28632,0.0551 -0.45411,0.0915 -0.16781,0.0366 -0.31914,0.0816 -0.45412,0.13541 l -0.12582,-0.25592 c 0.16782,-0.19501 0.34837,-0.42161 0.54166,-0.67992 0.19334,-0.25835 0.38939,-0.52884 0.58818,-0.81156 0.19878,-0.28268 0.39394,-0.56903 0.58543,-0.85905 0.1915,-0.28999 0.3693,-0.56658 0.53346,-0.82978 -0.10588,-0.37045 -0.20975,-0.73113 -0.31188,-1.08205 -0.10217,-0.35091 -0.20335,-0.66166 -0.30366,-0.93215 -0.10023,-0.27054 -0.19789,-0.48741 -0.29271,-0.65069 -0.0947,-0.16318 -0.18602,-0.24492 -0.27357,-0.24492 -0.0328,0 -0.0866,0.009 -0.16144,0.0292 -0.0748,0.0189 -0.15053,0.0416 -0.22707,0.0658 -0.0766,0.0245 -0.14505,0.0463 -0.20519,0.0658 -0.0602,0.0189 -0.0904,0.0294 -0.0904,0.0294 l -0.0766,-0.28515 c 0.15317,-0.0876 0.30001,-0.17424 0.44044,-0.25953 0.14045,-0.0854 0.26901,-0.16082 0.38572,-0.22661 0.11664,-0.0657 0.2161,-0.11809 0.29817,-0.15727 0.0821,-0.039 0.14312,-0.0584 0.1833,-0.0584 0.0985,0 0.1988,0.0828 0.30092,0.24857 0.10217,0.16576 0.20608,0.38626 0.31186,0.66165 0.10571,0.2754 0.21338,0.58979 0.32282,0.94315 0.10939,0.35335 0.21883,0.71768 0.32827,1.09297 0.14948,-0.23882 0.29547,-0.48251 0.43771,-0.73106 0.14222,-0.24859 0.26808,-0.47888 0.37752,-0.69093 0.10942,-0.21197 0.19788,-0.39113 0.26537,-0.53735 0.0675,-0.14626 0.10129,-0.23639 0.10129,-0.27054 -2e-5,-0.0488 -0.005,-0.0927 -0.0159,-0.13164 -0.0105,-0.039 -0.0345,-0.0681 -0.0711,-0.0876 -0.0364,-0.019 -0.0904,-0.0305 -0.16148,-0.0328 -0.0711,-0.002 -0.16499,0.005 -0.28179,0.0189 l -0.0105,-0.29974 c 0.24074,-0.0681 0.45411,-0.11583 0.64014,-0.14264 0.18603,-0.0268 0.32463,-0.0401 0.41582,-0.0401 0.17506,0 0.29727,0.0389 0.36657,0.11703 0.0693,0.078 0.10395,0.16812 0.10395,0.27048 -2e-5,0.0975 -0.0429,0.23039 -0.12862,0.39847 -0.0857,0.16812 -0.2116,0.38262 -0.37756,0.64339 -0.16586,0.26077 -0.37296,0.57027 -0.62098,0.9285 -0.24803,0.35825 -0.53252,0.77133 -0.85352,1.23923 0.10217,0.35093 0.20335,0.68844 0.30365,1.01259 0.10023,0.32411 0.19787,0.61047 0.29273,0.85904 0.0948,0.24858 0.18783,0.44719 0.27903,0.59589 0.0912,0.1485 0.17872,0.22303 0.26263,0.22303 0.0838,0 0.18144,-0.0164 0.2927,-0.0512 0.11135,-0.0344 0.23436,-0.0975 0.36931,-0.19007 l 0.093,0.2705 z"
         style="font-style:italic;font-weight:normal;font-size:20px;font-family:serif;fill:#000000;fill-opacity:1;stroke:none;stroke-width:0.53970325px;stroke-linecap:butt;stroke-linejoin:miter;stroke-opacity:1" />
      <path
         inkscape:connector-curvature="0"
         id="text22367"
         d="m 140.85168,87.467832 c 0,0.112816 -0.0289,0.257835 -0.087,0.435269 -0.0578,0.177419 -0.15187,0.414529 -0.28182,0.711346 -0.12998,0.296817 -0.30062,0.665752 -0.51201,1.106805 -0.21136,0.441083 -0.46892,0.979981 -0.77267,1.616708 -0.2098,0.434441 -0.41882,0.829087 -0.62705,1.183923 -0.20824,0.354853 -0.42197,0.65911 -0.64116,0.912819 -0.21921,0.253692 -0.44779,0.450182 -0.68579,0.589482 -0.238,0.13917 -0.49004,0.20891 -0.75623,0.20891 -0.0939,0 -0.18241,-0.007 -0.26539,-0.0249 -0.083,-0.0166 -0.15499,-0.0372 -0.21605,-0.0621 -0.0611,-0.0249 -0.10953,-0.0524 -0.14559,-0.0821 -0.036,-0.0298 -0.0541,-0.0581 -0.0541,-0.0845 0,-0.0398 0.0153,-0.0953 0.0448,-0.16665 0.0296,-0.0712 0.0666,-0.14595 0.11044,-0.22385 0.0438,-0.07803 0.0917,-0.149272 0.14331,-0.21392 0.0517,-0.06461 0.0994,-0.108599 0.1433,-0.131945 0.0751,0.05317 0.14164,0.09444 0.19962,0.124415 0.0579,0.02982 0.11195,0.05136 0.16205,0.06461 0.0503,0.01356 0.10014,0.02064 0.15029,0.02244 0.0503,0.0015 0.10331,0.003 0.1597,0.003 0.25364,0 0.50181,-0.130139 0.74449,-0.390489 0.24269,-0.260337 0.49554,-0.627615 0.75859,-1.101836 -0.0314,-0.192344 -0.0697,-0.409572 -0.11514,-0.651668 -0.0454,-0.242081 -0.0956,-0.490804 -0.15027,-0.746169 -0.0547,-0.255351 -0.11196,-0.511531 -0.17145,-0.768552 -0.0596,-0.257008 -0.11893,-0.49826 -0.1785,-0.723772 -0.0595,-0.225513 -0.11665,-0.428642 -0.17144,-0.60939 -0.0548,-0.180731 -0.10574,-0.322498 -0.15267,-0.425312 -0.0719,-0.16912 -0.133,-0.27939 -0.18318,-0.330798 -0.0502,-0.05136 -0.10179,-0.07711 -0.155,-0.07711 -0.0281,0 -0.0682,0.006 -0.11983,0.01988 -0.0517,0.01356 -0.10256,0.02726 -0.15265,0.04217 -0.0502,0.01507 -0.0939,0.02832 -0.1315,0.03976 -0.0376,0.01055 -0.0563,0.01747 -0.0563,0.01747 l -0.0563,-0.18406 c 0.13148,-0.06311 0.25679,-0.123511 0.37577,-0.181561 0.11908,-0.05814 0.22626,-0.108598 0.32176,-0.151782 0.0954,-0.04323 0.17928,-0.07803 0.25129,-0.104381 0.0719,-0.02651 0.1268,-0.03977 0.1644,-0.03977 0.0438,1.5e-5 0.0822,0.01055 0.11513,0.03479 0.0328,0.0232 0.065,0.05964 0.0964,0.109351 0.0314,0.04971 0.0617,0.115226 0.0916,0.196487 0.0296,0.08118 0.0635,0.178263 0.10105,0.291019 0.0596,0.179075 0.12452,0.390488 0.19494,0.634241 0.0705,0.243738 0.14164,0.506575 0.2137,0.78845 0.0719,0.28189 0.14255,0.57455 0.21139,0.877993 0.069,0.30343 0.13148,0.604404 0.18787,0.902864 0.10014,-0.20893 0.20121,-0.422 0.30297,-0.639213 0.1018,-0.217213 0.19963,-0.431955 0.29358,-0.644199 0.0939,-0.212242 0.18082,-0.415356 0.26067,-0.609373 0.0799,-0.194002 0.15028,-0.372249 0.21138,-0.534756 0.0611,-0.16249 0.10877,-0.302616 0.14331,-0.420342 0.0344,-0.117787 0.0517,-0.206428 0.0517,-0.266136 -1e-5,-0.165804 -0.083,-0.253693 -0.24895,-0.263634 -0.10014,-0.009 -0.24267,0.02832 -0.42743,0.114473 l -0.0845,-0.18406 c 0.22546,-0.139326 0.42352,-0.238783 0.59418,-0.298474 0.17066,-0.05964 0.30923,-0.08947 0.4157,-0.08947 0.0532,0 0.10331,0.0045 0.15029,0.01356 0.047,0.0075 0.0877,0.02561 0.1221,0.05227 0.0344,0.02651 0.0618,0.06461 0.0822,0.114323 0.0204,0.04971 0.0306,0.11613 0.0306,0.198988 z"
         style="font-style:italic;font-weight:normal;font-size:24px;font-family:serif;fill:#000000;fill-opacity:1;stroke:none;stroke-width:0.41248441px;stroke-linecap:butt;stroke-linejoin:miter;stroke-opacity:1" />
    </g>
  </g>
</svg>
