<?xml version="1.0" encoding="UTF-8" standalone="no"?>
<!-- Created with Inkscape (http://www.inkscape.org/) -->

<svg
   xmlns:osb="http://www.openswatchbook.org/uri/2009/osb"
   xmlns:dc="http://purl.org/dc/elements/1.1/"
   xmlns:cc="http://creativecommons.org/ns#"
   xmlns:rdf="http://www.w3.org/1999/02/22-rdf-syntax-ns#"
   xmlns:svg="http://www.w3.org/2000/svg"
   xmlns="http://www.w3.org/2000/svg"
   xmlns:sodipodi="http://sodipodi.sourceforge.net/DTD/sodipodi-0.dtd"
   xmlns:inkscape="http://www.inkscape.org/namespaces/inkscape"
   width="350mm"
   height="350mm"
   viewBox="0 0 350 350"
   version="1.1"
   id="svg8"
   sodipodi:docname="rirst.svg"
   inkscape:version="0.92.2 (5c3e80d, 2017-08-06)">
  <defs
     id="defs2">
    <linearGradient
       id="linearGradient4534"
       osb:paint="solid">
      <stop
         style="stop-color:#000000;stop-opacity:1;"
         offset="0"
         id="stop4532" />
    </linearGradient>
  </defs>
  <sodipodi:namedview
     id="base"
     pagecolor="#ffffff"
     bordercolor="#666666"
     borderopacity="1.0"
     inkscape:pageopacity="0.0"
     inkscape:pageshadow="2"
     inkscape:zoom="0.5157411"
     inkscape:cx="884.11402"
     inkscape:cy="544.68517"
     inkscape:document-units="mm"
     inkscape:current-layer="layer1"
     showgrid="false"
     showborder="true"
     showguides="true"
     inkscape:guide-bbox="true"
     inkscape:window-width="1920"
     inkscape:window-height="1018"
     inkscape:window-x="0"
     inkscape:window-y="34"
     inkscape:window-maximized="1" />
  <metadata
     id="metadata5">
    <rdf:RDF>
      <cc:Work
         rdf:about="">
        <dc:format>image/svg+xml</dc:format>
        <dc:type
           rdf:resource="http://purl.org/dc/dcmitype/StillImage" />
        <dc:title></dc:title>
      </cc:Work>
    </rdf:RDF>
  </metadata>
  <g
     inkscape:label="Layer 1"
     inkscape:groupmode="layer"
     id="layer1"
     transform="translate(0,53)">
    <rect
       id="rect3715"
       width="105.97684"
       height="51.9884"
       x="132.05336"
       y="54.09354"
       style="fill:#000000;fill-opacity:0.00961537;stroke:#ff0000;stroke-width:1;stroke-miterlimit:4;stroke-dasharray:none;stroke-opacity:0.99038463;image-rendering:auto" />
    <rect
       id="rect3715-3"
       width="159.40761"
       height="54.633198"
       x="104.0036"
       y="82.441956"
       style="fill:#000000;fill-opacity:0.00961537;stroke:#000000;stroke-width:1.25725722;stroke-miterlimit:4;stroke-dasharray:none;stroke-opacity:1;image-rendering:auto" />
    <rect
       id="rect3715-3-5"
       width="123.70442"
       height="88.579346"
       x="59.175064"
       y="32.109711"
       style="fill:#000000;fill-opacity:0.00961537;stroke:#000000;stroke-width:1.41026306;stroke-miterlimit:4;stroke-dasharray:none;stroke-opacity:1;image-rendering:auto" />
    <rect
       id="rect3715-3-3"
       width="144.60931"
       height="48.708942"
       x="126.53765"
       y="16.021469"
       style="fill:#000000;fill-opacity:0.00961537;stroke:#000000;stroke-width:1.13069057;stroke-miterlimit:4;stroke-dasharray:none;stroke-opacity:1;image-rendering:auto" />
    <g
       id="g6402"
       transform="matrix(1.1666665,0,0,1.1666651,-4.114644e-8,-49.49954)">
      <path
         inkscape:connector-curvature="0"
         sodipodi:nodetypes="cc"
         id="path2623"
         d="M 1.3397846,146.99999 H 295.82103"
         style="fill:none;fill-rule:evenodd;stroke:#000000;stroke-width:2.64194131;stroke-linecap:round;stroke-linejoin:round;stroke-miterlimit:4;stroke-dasharray:none;stroke-opacity:1;marker-start:none;marker-mid:none;marker-end:none" />
      <path
         inkscape:connector-curvature="0"
         sodipodi:nodetypes="cc"
         id="path2625"
         d="M 148.58041,295.66022 V -1.6602206"
         style="fill:none;fill-rule:evenodd;stroke:#000000;stroke-width:2.64194131;stroke-linecap:round;stroke-linejoin:round;stroke-miterlimit:4;stroke-dasharray:none;stroke-opacity:1;marker-start:none;marker-end:none" />
      <path
         inkscape:connector-curvature="0"
         id="path9048"
         d="m 141.56894,12.497888 7.01165,-13.8672836 7.0113,13.8672836"
         style="fill:none;fill-rule:evenodd;stroke:#000000;stroke-width:2.64194131;stroke-linecap:round;stroke-linejoin:round;stroke-miterlimit:4;stroke-dasharray:none;stroke-opacity:1" />
      <path
         inkscape:connector-curvature="0"
         id="path9050"
         d="m 281.79811,139.92093 14.19556,7.08027 -14.19556,7.07786"
         style="fill:none;fill-rule:evenodd;stroke:#000000;stroke-width:2.64194131;stroke-linecap:round;stroke-linejoin:round;stroke-miterlimit:4;stroke-dasharray:none;stroke-opacity:1" />
      <path
         inkscape:connector-curvature="0"
         id="text22363"
         d="m 299.81273,163.57386 c -0.33244,0.23408 -0.62609,0.43505 -0.88116,0.60284 -0.25503,0.16763 -0.48504,0.30431 -0.68988,0.40975 -0.20494,0.10538 -0.39037,0.18348 -0.55652,0.23409 -0.16603,0.0507 -0.32271,0.0764 -0.46959,0.0764 -0.23185,-4e-5 -0.46571,-0.12301 -0.70148,-0.36886 -0.23597,-0.2458 -0.46762,-0.57361 -0.69565,-0.98334 -0.22811,-0.40971 -0.45607,-0.88186 -0.68406,-1.41645 -0.22811,-0.53459 -0.45027,-1.09062 -0.66671,-1.66816 -0.17762,0.242 -0.38067,0.51311 -0.6087,0.81358 -0.22812,0.30053 -0.47151,0.62239 -0.73047,0.96577 -0.25877,0.34358 -0.52752,0.70824 -0.80578,1.09456 -0.27821,0.3863 -0.55268,0.78625 -0.82323,1.19989 -0.28608,0.0392 -0.60676,0.0881 -0.96235,0.14648 -0.35562,0.0585 -0.67632,0.13062 -0.96234,0.21673 l -0.26663,-0.40976 c 0.35562,-0.31224 0.73821,-0.67505 1.14786,-1.08866 0.4097,-0.41365 0.82516,-0.84678 1.2464,-1.29943 0.42128,-0.45264 0.83483,-0.9111 1.24063,-1.37548 0.40581,-0.46431 0.78263,-0.90721 1.13048,-1.32864 -0.22437,-0.59314 -0.44448,-1.17063 -0.66092,-1.73252 -0.21651,-0.56188 -0.43092,-1.05942 -0.64348,-1.49254 -0.2124,-0.43314 -0.41934,-0.78044 -0.6203,-1.04185 -0.20081,-0.26126 -0.39421,-0.39216 -0.57972,-0.39216 -0.0696,0 -0.18361,0.0151 -0.34216,0.0468 -0.15856,0.0302 -0.31897,0.0665 -0.48116,0.10538 -0.16229,0.0392 -0.30738,0.074 -0.43482,0.10537 -0.12751,0.0303 -0.19147,0.0469 -0.19147,0.0469 l -0.16227,-0.45654 c 0.32457,-0.14045 0.63577,-0.27901 0.93336,-0.41557 0.29765,-0.1367 0.57008,-0.25749 0.81739,-0.36283 0.24719,-0.10525 0.45797,-0.18915 0.6319,-0.25183 0.17389,-0.0624 0.30327,-0.0935 0.38841,-0.0935 0.20866,0 0.42129,0.13257 0.63769,0.39802 0.21652,0.26542 0.43674,0.61846 0.66091,1.05941 0.22399,0.44094 0.45218,0.94433 0.68407,1.51013 0.23183,0.56578 0.46375,1.14914 0.69568,1.75005 0.31672,-0.3824 0.62609,-0.77259 0.92753,-1.17058 0.3014,-0.39803 0.56813,-0.76678 0.80005,-1.10628 0.23185,-0.33941 0.41931,-0.62627 0.56234,-0.86038 0.14285,-0.2341 0.21464,-0.37849 0.21464,-0.43318 -4e-5,-0.0781 -0.0113,-0.14837 -0.0336,-0.21068 -0.0224,-0.0624 -0.0733,-0.10906 -0.1507,-0.14044 -0.0774,-0.0303 -0.19147,-0.0486 -0.34217,-0.0525 -0.1507,-0.004 -0.34964,0.007 -0.59714,0.0302 l -0.0224,-0.47993 c 0.51017,-0.10906 0.96235,-0.18539 1.35656,-0.22842 0.39421,-0.043 0.68794,-0.0642 0.88119,-0.0642 0.37096,0 0.62995,0.0623 0.77683,0.18727 0.14697,0.12495 0.22026,0.26919 0.22026,0.43312 -4e-5,0.15593 -0.0909,0.36887 -0.2726,0.63799 -0.18174,0.26919 -0.44837,0.61265 -0.80007,1.03018 -0.35149,0.41754 -0.79033,0.91308 -1.31594,1.48668 -0.52562,0.57362 -1.12852,1.23503 -1.80872,1.98421 0.2165,0.5619 0.43089,1.10233 0.64348,1.62131 0.2124,0.51898 0.4193,0.97747 0.6203,1.37549 0.2008,0.39801 0.39806,0.71602 0.59131,0.95408 0.19334,0.23785 0.37874,0.35715 0.55654,0.35715 0.17763,0 0.38453,-0.0263 0.6203,-0.082 0.23596,-0.0548 0.49664,-0.15593 0.78262,-0.3043 l 0.19709,0.43312 z"
         style="font-style:italic;font-weight:normal;font-size:20px;font-family:serif;fill:#000000;fill-opacity:1;stroke:none;stroke-width:0.99415267px;stroke-linecap:butt;stroke-linejoin:miter;stroke-opacity:1" />
      <path
         inkscape:connector-curvature="0"
         id="text22367"
         d="m 137.89991,2.4305314 c 0,0.26542 -0.0714,0.606752 -0.21464,1.024288 -0.14284,0.417535 -0.37487,0.975507 -0.69565,1.673985 -0.32084,0.698506 -0.74205,1.56671 -1.26381,2.60464 -0.52177,1.037958 -1.15752,2.3061436 -1.90732,3.8045276 -0.51786,1.022367 -1.03383,1.951058 -1.54782,2.786088 -0.51403,0.835071 -1.04159,1.55109 -1.58265,2.148111 -0.5411,0.597021 -1.10534,1.059397 -1.6928,1.387197 -0.58747,0.327703 -1.20968,0.491637 -1.8667,0.491637 -0.23185,0 -0.45026,-0.01894 -0.65511,-0.05846 -0.20492,-0.03885 -0.38257,-0.08763 -0.53331,-0.146104 -0.1507,-0.05846 -0.27037,-0.123158 -0.35937,-0.193307 -0.089,-0.07022 -0.1335,-0.136704 -0.1335,-0.198975 0,-0.09358 0.0374,-0.224256 0.11031,-0.392157 0.0733,-0.167625 0.16417,-0.343572 0.27262,-0.526789 0.10806,-0.183493 0.22624,-0.351132 0.35374,-0.503387 0.12751,-0.152159 0.24531,-0.255605 0.35375,-0.310357 0.18549,0.124956 0.34964,0.222377 0.49275,0.292609 0.14284,0.07022 0.27634,0.120808 0.40001,0.152143 0.12377,0.03027 0.24717,0.04866 0.37095,0.0528 0.12378,0.0041 0.25503,0.0069 0.39422,0.0069 0.62608,0 1.23868,-0.306195 1.8377,-0.918918 0.59906,-0.612654 1.22321,-1.476946 1.87254,-2.592946 -0.0774,-0.452631 -0.17203,-0.963801 -0.28421,-1.533522 -0.11219,-0.569694 -0.23595,-1.155007 -0.37095,-1.7559526 -0.13537,-0.600905 -0.27635,-1.203773 -0.4232,-1.808617 -0.14696,-0.604789 -0.29354,-1.172548 -0.44061,-1.703234 -0.14696,-0.530686 -0.28793,-1.008695 -0.42319,-1.434041 -0.13537,-0.425318 -0.26102,-0.758924 -0.37683,-1.000886 -0.17762,-0.397977 -0.32832,-0.657467 -0.45217,-0.778441 -0.12378,-0.120808 -0.25129,-0.1816 -0.38262,-0.1816 -0.0696,0 -0.16827,0.01506 -0.29579,0.04685 -0.12752,0.03028 -0.25316,0.06413 -0.37682,0.09924 -0.12378,0.034 -0.23186,0.06649 -0.32458,0.09358 -0.0928,0.0264 -0.13912,0.04119 -0.13912,0.04119 l -0.1391,-0.433127 c 0.32457,-0.148371 0.63383,-0.290715 0.92756,-0.427267 0.29393,-0.136705 0.55846,-0.255606 0.79422,-0.357174 0.23558,-0.101601 0.44254,-0.183479 0.6203,-0.245777 0.17763,-0.06235 0.313,-0.09358 0.40581,-0.09358 0.10807,4.2e-5 0.20305,0.02639 0.2842,0.08197 0.0812,0.05473 0.16043,0.140451 0.23783,0.257486 0.0774,0.117076 0.15256,0.271087 0.22623,0.462389 0.0733,0.191041 0.15669,0.4195 0.24943,0.684837 0.14695,0.421418 0.30738,0.918917 0.48118,1.492537 0.1739,0.573604 0.34964,1.192106 0.52753,1.855434 0.17762,0.663382 0.35188,1.352073 0.52176,2.066171 0.17015,0.714055 0.32459,1.422305 0.46376,2.1246676 0.24719,-0.491653 0.49665,-0.9930766 0.74786,-1.5042466 0.2513,-0.511155 0.49275,-1.016478 0.72467,-1.515966 0.23184,-0.499461 0.44637,-0.977443 0.64347,-1.434014 0.19709,-0.456529 0.37096,-0.875986 0.52177,-1.258414 0.1507,-0.382411 0.2685,-0.712134 0.35376,-0.989177 0.0849,-0.277114 0.12751,-0.485792 0.12751,-0.626284 -3e-5,-0.390193 -0.20492,-0.597021 -0.6145,-0.620421 -0.24719,-0.02267 -0.59906,0.06649 -1.05512,0.269193 l -0.20867,-0.433129 c 0.55656,-0.327716 1.04545,-0.561911 1.46669,-0.702389 0.42129,-0.14045 0.76333,-0.210668 1.02614,-0.210668 0.13126,2.8e-5 0.25503,0.01106 0.37097,0.03028 0.11591,0.0188 0.2165,0.06039 0.30139,0.123019 0.0849,0.06235 0.15257,0.152158 0.20305,0.269193 0.0501,0.117077 0.0755,0.273353 0.0755,0.468278 z"
         style="font-style:italic;font-weight:normal;font-size:24px;font-family:serif;fill:#000000;fill-opacity:1;stroke:none;stroke-width:0.99415267px;stroke-linecap:butt;stroke-linejoin:miter;stroke-opacity:1" />
    </g>
  </g>
</svg>
