<svg xmlns="http://www.w3.org/2000/svg" width="431.256" height="586.942" viewBox="0 0 323.44233 440.2066" version="1.2"><defs><clipPath id="a"><path d="M101 140.215h5V145h-5zm0 0"/></clipPath><clipPath id="b"><path d="M100 140.215h6V145h-6zm0 0"/></clipPath></defs><path d="M134.99 167.973V116.93l-34.035-34.027V48.877L152 14.843l68.06 51.043m-68.061 153.122l71.314 11.242-37.288 22.792" fill="#cacaca" fill-rule="evenodd"/><path d="M151.999 219.008l34.026 34.034" fill="none" stroke="#000" stroke-width=".85" stroke-linejoin="round" stroke-miterlimit="10"/><path d="M134.99 116.93L49.92 287.068m85.07-170.138l-34.035-34.027V48.877L152 14.843l68.06 51.043-85.07 102.087" fill="none" stroke="#000" stroke-width="2.552" stroke-linejoin="round" stroke-miterlimit="10"/><path d="M105 48.877a4.038 4.038 0 0 0-4.045-4.044 4.036 4.036 0 0 0-4.036 4.044 4.034 4.034 0 0 0 4.036 4.036A4.036 4.036 0 0 0 105 48.877zm0 0" fill-rule="evenodd" stroke="#000" stroke-width="1.617" stroke-linejoin="round" stroke-miterlimit="10"/><g transform="translate(-67.86 -288.695) scale(2.13027)" clip-path="url(#a)"><path d="M105.105 142.488a1.897 1.897 0 1 0-3.794.006 1.897 1.897 0 0 0 3.794-.006" fill-rule="evenodd"/></g><g transform="translate(-67.86 -288.695) scale(2.13027)" clip-path="url(#b)"><path d="M105.105 142.488a1.897 1.897 0 1 0-3.794.006 1.897 1.897 0 0 0 3.794-.006zm0 0" fill="none" stroke="#000" stroke-width=".759" stroke-linejoin="round" stroke-miterlimit="10"/></g><path d="M224.095 65.886a4.034 4.034 0 0 0-4.036-4.036 4.036 4.036 0 0 0-4.044 4.036 4.043 4.043 0 0 0 4.044 4.044 4.041 4.041 0 0 0 4.036-4.044zm0 0" fill-rule="evenodd" stroke="#000" stroke-width="1.617" stroke-linejoin="round" stroke-miterlimit="10"/><path d="M220.059 65.886L100.955 48.877m0 34.026L220.06 65.886m-85.07 51.044l85.07-51.044m-85.07 51.044v51.043" fill="none" stroke="#000" stroke-width=".85" stroke-linejoin="round" stroke-miterlimit="10"/><path d="M49.213 287.884l-3.395 5.533c-3.387 5.534-10.169 16.593-6.782 28.426 3.387 11.825 16.934 24.423 17.866 34.226.94 9.794-10.743 16.792-.233 22.393 10.518 5.592 43.23 9.794 72.155 6.474 28.925-3.32 54.055-14.155 71.04-22.518 16.975-8.363 25.795-14.246 18.606-19.788-7.19-5.542-30.398-10.751-30.648-17.125-.241-6.366 22.476-13.905 24.274-20.62 1.805-6.708-17.317-12.591-19.273-17.975-1.964-5.392 13.231-10.293 20.829-12.748l7.597-2.447" fill="none" stroke="#000" stroke-width="2.552" stroke-linejoin="round" stroke-miterlimit="10" stroke-dasharray=".998334,2.995002"/><path d="M151.999 219.008l71.314 11.242-37.288 22.792" fill="none" stroke="#000" stroke-width="2.552" stroke-linejoin="round" stroke-miterlimit="10"/><path d="M227.349 230.25a4.036 4.036 0 0 0-4.036-4.044 4.038 4.038 0 0 0-4.044 4.044 4.036 4.036 0 0 0 4.044 4.036 4.034 4.034 0 0 0 4.036-4.036zm0 0" fill-rule="evenodd" stroke="#000" stroke-width="1.617" stroke-linejoin="round" stroke-miterlimit="10"/><path d="M134.99 167.973l17.009 51.035m34.026 34.034l35.224 18.673" fill="none" stroke="#000" stroke-width="2.552" stroke-linejoin="round" stroke-miterlimit="10"/><path d="M54.677 286.227a4.043 4.043 0 0 0-4.044-4.044 4.041 4.041 0 0 0-4.036 4.044 4.034 4.034 0 0 0 4.036 4.036 4.036 4.036 0 0 0 4.044-4.036zm0 0" fill="red" fill-rule="evenodd" stroke="#000" stroke-width="1.617" stroke-linejoin="round" stroke-miterlimit="10"/><g stroke="#000" stroke-linejoin="round" stroke-miterlimit="10"><path d="M59.43 126.29s3.343-9.142 10.707-10.952c13.789-3.388 22.773 2.646 37.804 2.277l19.61-.696" fill="none" stroke-width=".752"/><path d="M127.574 116.93l-10.687-3.383.11 7.096zm0 0" fill-rule="evenodd" stroke-width=".85"/></g><g stroke="#000" stroke-width=".85" stroke-linejoin="round" stroke-miterlimit="10"><path d="M272.789 219.759v2.829c0 2.838 0 8.504-5.675 11.342-5.667 2.838-17.01 2.838-24.823 7.273-7.814 4.427-12.1 13.297-14.238 17.724l-2.139 4.436" fill="none"/><path d="M225.914 263.363l7.814-8.039-6.382-3.079zm0 0" fill-rule="evenodd"/></g><path d="M190.069 253.042a4.043 4.043 0 0 0-4.044-4.044 4.036 4.036 0 0 0-4.036 4.044 4.034 4.034 0 0 0 4.036 4.036 4.041 4.041 0 0 0 4.044-4.036zm34.026 17.009a4.034 4.034 0 0 0-4.036-4.036 4.036 4.036 0 0 0-4.044 4.036 4.043 4.043 0 0 0 4.044 4.044 4.041 4.041 0 0 0 4.036-4.044zm-68.052-51.043a4.041 4.041 0 0 0-4.044-4.036 4.034 4.034 0 0 0-4.036 4.036 4.041 4.041 0 0 0 4.036 4.044 4.049 4.049 0 0 0 4.044-4.044zm-17.017-51.035a4.041 4.041 0 0 0-4.036-4.044 4.049 4.049 0 0 0-4.044 4.044 4.041 4.041 0 0 0 4.044 4.036 4.034 4.034 0 0 0 4.036-4.036zm0-51.043a4.041 4.041 0 0 0-4.036-4.045 4.049 4.049 0 0 0-4.044 4.045 4.041 4.041 0 0 0 4.044 4.035 4.034 4.034 0 0 0 4.036-4.035zm0 0" fill="#ff0" fill-rule="evenodd" stroke="#000" stroke-width="1.617" stroke-linejoin="round" stroke-miterlimit="10"/><text style="line-height:18.75000763px" x="28.998" y="134.382" font-weight="400" font-size="30.001" letter-spacing="0" word-spacing="0" font-family="sans-serif" stroke-width=".75"><tspan x="28.998" y="134.382" font-size="17"> <tspan x="28.998" y="134.382" style="-inkscape-font-specification:'Times New Roman, '" font-family="Times New Roman">дно стека</tspan> </tspan></text><text style="line-height:18.75000763px" x="216.276" y="217.463" font-weight="400" font-size="30.001" letter-spacing="0" word-spacing="0" font-family="sans-serif" stroke-width=".75"><tspan x="216.276" y="217.463" font-size="17"> <tspan x="216.276" y="217.463" style="-inkscape-font-specification:'Times New Roman, '" font-family="Times New Roman">вершина стека</tspan> </tspan></text><text style="line-height:18.75px" x="227.291" y="586.08" font-weight="400" font-size="30" font-family="sans-serif" letter-spacing="0" word-spacing="0" stroke-width=".75" transform="translate(-111.822 -156.298)"><tspan x="227.291" y="586.08"> <tspan x="227.291" y="586.08">Рис. 1</tspan> </tspan></text><text style="line-height:15.00000858px;text-align:center" x="123.086" y="308.62" font-weight="400" font-size="30" font-family="sans-serif" letter-spacing="0" word-spacing="0" text-anchor="middle"><tspan x="123.086" y="308.62" style="line-height:15.00000858px;-inkscape-font-specification:'Times New Roman, '" font-size="17" font-family="Times New Roman">нетриангулированная</tspan><tspan x="123.086" y="326.948" style="line-height:15.00000858px;-inkscape-font-specification:'Times New Roman, '" font-size="17" font-family="Times New Roman">область</tspan></text></svg>