<svg xmlns="http://www.w3.org/2000/svg" xmlns:xlink="http://www.w3.org/1999/xlink" width="907.18" height="421.513" viewBox="0 0 680.38542 316.13479" version="1.2"><defs><symbol overflow="visible" id="a"><path d="M.188-3.61h.265c.36 0 .438.141.563.97.093.624.203 1.968.203 2.484 0 .25.015.312.078.312.219 0 1.062-.937 1.969-2.219.312-.437.546-1.03.546-1.359 0-.281-.234-.531-.5-.531-.203 0-.328.125-.328.312 0 .141.047.25.22.391.108.11.155.172.155.266 0 .421-.593 1.406-1.234 2.078l-.266.281c-.062-1.266-.125-1.734-.234-2.39-.188-.922-.188-.938-.266-.938a.407.407 0 0 0-.171.047c-.172.031-.657.125-1 .187zm0 0"/></symbol><symbol overflow="visible" id="b"><path d="M1.719-3.063l-.032-.015c-.609.11-.968.172-1.171.172v.125h.187l.047-.016c.047 0 .188.031.219.063a.239.239 0 0 1 .062.156c0 .078-.047.265-.125.562L.406.016C.172.969.016 1.28-.266 1.28c-.078 0-.125-.031-.125-.078 0-.031 0-.047.032-.078a.19.19 0 0 0 .062-.14c0-.141-.125-.266-.281-.266-.172 0-.281.125-.281.297 0 .25.218.421.546.421.61 0 1.016-.53 1.297-1.625zm-.14-1.5c-.188 0-.329.157-.329.375 0 .22.125.375.328.375.188 0 .344-.171.344-.359 0-.203-.156-.39-.344-.39zm0 0"/></symbol><clipPath id="d"><path d="M75.195 183H226v18H75.195zm0 0"/></clipPath><clipPath id="c"><path d="M156 450h6.996v14H156zm0 0"/></clipPath></defs><g transform="translate(9.862 -340.794) scale(1.54688)"><path d="M262.197 333.24l-26.532 14.563m-13.402-86.441v23.96l7.988 23.958 15.973 15.972 15.973 7.989" stroke-miterlimit="10" fill="none" stroke="#000" stroke-width="1.198" stroke-linejoin="round"/><path d="M264.095 333.24a1.9 1.9 0 0 0-1.898-1.898 1.9 1.9 0 0 0-1.899 1.899 1.9 1.9 0 0 0 1.899 1.898 1.9 1.9 0 0 0 1.898-1.898z" fill-rule="evenodd" stroke="#000" stroke-width=".759" stroke-linejoin="round" stroke-miterlimit="10" fill="#0f0"/><path d="M235.665 347.803l10.559-22.55m-10.559 22.55l-5.414-38.523m5.414 38.523l-13.402-62.48" stroke-miterlimit="10" fill="none" stroke="#000" stroke-width=".399" stroke-linejoin="round"/><use height="100%" width="100%" y="190.948" x="145.229" xlink:href="#a" transform="translate(93.517 163.436)"/><use height="100%" width="100%" y="192.388" x="150.248" xlink:href="#b" transform="translate(93.517 163.436)"/><path d="M222.263 261.362l-45.586 87.87" stroke-miterlimit="10" fill="none" stroke="#000" stroke-width="1.198" stroke-linejoin="round"/><path d="M176.677 349.233l-7.363 14.191" stroke-miterlimit="10" fill="none" stroke="#000" stroke-width="1.198" stroke-linejoin="round" stroke-dasharray=".998334,2.995002"/><path d="M253.075 269.561l-1.332 1.996c-1.332 2-3.992 5.992-8.312 8.461-4.317 2.465-10.293 3.406-13.281 3.879l-2.989.469" stroke-miterlimit="10" fill="none" stroke="#000" stroke-width=".399" stroke-linejoin="round"/><path d="M227.161 284.366l5.192.867-.52-3.285zm0 0" stroke-miterlimit="10" fill-rule="evenodd" stroke="#000" stroke-width=".399" stroke-linejoin="round"/><path d="M269.048 301.51l-1.996 1.328c-1.996 1.332-5.988 3.996-11.547 5.325-5.555 1.328-12.672 1.32-16.23 1.316l-3.559-.004" stroke-miterlimit="10" fill="none" stroke="#000" stroke-width=".399" stroke-linejoin="round"/><path d="M235.716 309.475l4.988 1.668.004-3.324zm0 0" stroke-miterlimit="10" fill-rule="evenodd" stroke="#000" stroke-width=".399" stroke-linejoin="round"/><path d="M273.044 301.51l-1.332 1.996c-1.332 1.996-3.992 5.989-7.7 9.492-3.706 3.504-8.456 6.52-10.831 8.028l-2.375 1.508" stroke-miterlimit="10" fill="none" stroke="#000" stroke-width=".399" stroke-linejoin="round"/><path d="M250.806 322.534l5.105-1.27-1.785-2.808zm0 0" stroke-miterlimit="10" fill-rule="evenodd" stroke="#000" stroke-width=".399" stroke-linejoin="round"/><path d="M277.036 301.51l-.668 2.66c-.664 2.664-1.996 7.989-3.933 12.664-1.942 4.676-4.492 8.704-5.766 10.715l-1.273 2.016" stroke-miterlimit="10" fill="none" stroke="#000" stroke-width=".399" stroke-linejoin="round"/><path d="M265.396 329.565l4.074-3.328-2.813-1.781zm0 0" stroke-miterlimit="10" fill-rule="evenodd" stroke="#000" stroke-width=".399" stroke-linejoin="round"/><path d="M217.134 361.409l.246-1.375c.246-1.371.738-4.121 2.914-6.246 2.172-2.13 6.031-3.633 7.957-4.387l1.93-.754" stroke-miterlimit="10" fill="none" stroke="#000" stroke-width=".399" stroke-linejoin="round"/><path d="M230.18 348.647l-5.253.266 1.207 3.101zm0 0" stroke-miterlimit="10" fill-rule="evenodd" stroke="#000" stroke-width=".399" stroke-linejoin="round"/><path d="M237.56 347.803c.002-2.53-3.793-2.532-3.795-.002 0 1.612 1.541 2.198 2.66 1.755.636-.252 1.135-.836 1.135-1.753z" fill-rule="evenodd" stroke="#000" stroke-width=".759" stroke-linejoin="round" stroke-miterlimit="10" fill="red"/><path d="M248.118 325.252a1.894 1.894 0 0 0-1.894-1.894c-1.688 0-2.534 2.041-1.34 3.235 1.194 1.194 3.235.348 3.235-1.34zm-15.972-15.972a1.894 1.894 0 0 0-1.895-1.895c-1.05 0-1.898.848-1.898 1.895.057 2.471 3.736 2.471 3.793 0zm-7.985-23.957c0-2.531-3.797-2.531-3.797 0 0 1.047.852 1.894 1.899 1.894a1.897 1.897 0 0 0 1.898-1.894z" fill-rule="evenodd" stroke="#000" stroke-width=".759" stroke-linejoin="round" stroke-miterlimit="10" fill="#0f0"/><path d="M224.161 261.362a1.899 1.899 0 1 0-3.797 0c0 1.047.852 1.894 1.899 1.894a1.897 1.897 0 0 0 1.898-1.894zm0 0" stroke-miterlimit="10" fill-rule="evenodd" stroke="#000" stroke-width=".759" stroke-linejoin="round" fill="#ff0"/></g><path d="M185.284 163.138l18.363 39.238" fill="none" stroke="#000" stroke-width="1.92" stroke-linejoin="round" stroke-miterlimit="10"/><g clip-path="url(#c)" transform="translate(-47.855 -520.74) scale(1.6028)"><path d="M157.129 451.316l5.27 11.247" fill="none" stroke="#000" stroke-width="1.198" stroke-linejoin="round" stroke-miterlimit="10" stroke-dasharray="1,3"/></g><path d="M121.278 47.93v38.405l12.798 38.405 25.6 25.6 25.608 12.798M121.278 47.93l-76.81 153.613" fill="none" stroke="#000" stroke-width="1.92" stroke-linejoin="round" stroke-miterlimit="10"/><path d="M44.469 201.543l140.815-38.405M44.469 201.543l115.208-51.202M44.469 201.543l89.607-76.803m-89.607 76.803l76.81-115.208" fill="none" stroke="#000" stroke-width=".64" stroke-linejoin="round" stroke-miterlimit="10"/><path d="M124.315 47.93a3.04 3.04 0 0 0-6.08 0 3.046 3.046 0 0 0 3.043 3.043 3.04 3.04 0 0 0 3.037-3.043zm0 0" fill="#ff0" fill-rule="evenodd" stroke="#000" stroke-width="1.217" stroke-linejoin="round" stroke-miterlimit="10"/><path d="M38.844 212.041h.319c.432 0 .526.17.676 1.165.113.751.244 2.366.244 2.986 0 .3.019.376.094.376.263 0 1.277-1.127 2.367-2.667.375-.526.657-1.24.657-1.634 0-.339-.282-.639-.6-.639-.245 0-.395.15-.395.376 0 .169.056.3.263.47.131.13.187.206.187.318 0 .508-.713 1.69-1.483 2.499l-.32.338c-.075-1.522-.15-2.085-.281-2.874-.226-1.108-.226-1.127-.32-1.127a.49.49 0 0 0-.206.056c-.207.038-.79.15-1.202.226zm9.884 2.965l-.037-.019c-.733.132-1.165.207-1.41.207v.15h.226l.057-.019c.056 0 .225.038.263.075a.287.287 0 0 1 .075.188c0 .094-.057.32-.15.676l-.602 2.442c-.281 1.146-.47 1.522-.807 1.522-.094 0-.15-.038-.15-.094 0-.038 0-.057.037-.094a.23.23 0 0 0 .075-.17c0-.168-.15-.319-.338-.319-.207 0-.338.15-.338.357 0 .3.263.507.657.507.733 0 1.221-.638 1.56-1.953zm-.169-1.803c-.225 0-.394.188-.394.45 0 .264.15.451.394.451.225 0 .413-.206.413-.432 0-.244-.188-.47-.413-.47zm27.198-94.96c-.77.62-1.108.808-1.578.808-.6 0-.995-.395-.995-.977 0-.169.019-.32.094-.676l.3-.038c1.616-.225 2.761-1.033 2.761-1.972 0-.45-.319-.732-.864-.732-1.54 0-3.23 1.784-3.23 3.4 0 .863.582 1.464 1.408 1.464.77 0 1.597-.432 2.236-1.164zm-2.216-1.54c.375-.958 1.164-1.803 1.709-1.803.225 0 .376.188.376.432 0 .338-.207.714-.526 1.033-.413.376-.808.582-1.747.808zm0 0"/><path d="M151.988 54.968l-1.646 1.408c-1.647 1.41-4.94 4.227-9.148 3.813-4.207-.42-9.341-4.076-11.902-5.91l-2.567-1.828" fill="none" stroke="#000" stroke-width=".64" stroke-linejoin="round" stroke-miterlimit="10"/><path d="M126.725 52.45l4.971 6.819 3.093-4.345zm0 0" fill-rule="evenodd" stroke="#000" stroke-width=".64" stroke-linejoin="round" stroke-miterlimit="10"/><path d="M164.792 54.968l-1.07 3.2c-1.065 3.198-3.2 9.597-9.298 14.668-6.099 5.066-16.166 8.797-21.2 10.663l-5.034 1.866" fill="none" stroke="#000" stroke-width=".64" stroke-linejoin="round" stroke-miterlimit="10"/><path d="M128.19 85.365l8.434-.282-1.853-5.003zm0 0" fill-rule="evenodd" stroke="#000" stroke-width=".64" stroke-linejoin="round" stroke-miterlimit="10"/><path d="M177.595 54.968l-1.07 6.398c-1.065 6.4-3.2 19.203-9.48 30.122-6.279 10.913-16.703 19.947-21.919 24.461l-5.209 4.515" fill="none" stroke="#000" stroke-width=".64" stroke-linejoin="round" stroke-miterlimit="10"/><path d="M139.917 120.464l7.789-3.219-3.488-4.032zm0 0" fill-rule="evenodd" stroke="#000" stroke-width=".64" stroke-linejoin="round" stroke-miterlimit="10"/><path d="M190.393 54.968v7.47c0 7.462 0 22.4-4.508 37.214-4.502 14.82-13.517 29.514-18.025 36.865l-4.502 7.35" fill="none" stroke="#000" stroke-width=".64" stroke-linejoin="round" stroke-miterlimit="10"/><path d="M163.358 143.867l6.455-5.428-4.545-2.786zm0 0" fill-rule="evenodd" stroke="#000" stroke-width=".64" stroke-linejoin="round" stroke-miterlimit="10"/><path d="M158.393 202.181l.213-2.773c.22-2.774.651-8.315 3.926-10.6 3.268-2.279 9.372-1.302 13.28-3.863 3.906-2.56 5.615-8.659 6.467-11.702l.857-3.049" fill="none" stroke="#000" stroke-width=".64" stroke-linejoin="round" stroke-miterlimit="10"/><path d="M183.136 170.194l-4.727 6.981 5.134 1.44zm0 0" fill-rule="evenodd" stroke="#000" stroke-width=".64" stroke-linejoin="round" stroke-miterlimit="10"/><path d="M30.938 151.726s1.447 3.837-7.135 7.992c-8.196 3.967-9.367 16.784-7.195 21.74 3.3 7.012 12.02 12.497 16.384 15.245l4.364 2.742" fill="none" stroke="#000" stroke-width=".64" stroke-linejoin="round" stroke-miterlimit="10"/><path d="M37.356 199.445l-5.353-6.517-2.836 4.514zm0 0" fill-rule="evenodd" stroke="#000" stroke-width=".64" stroke-linejoin="round" stroke-miterlimit="10"/><path d="M197.62 157.001l-.028-1.052h-.08l-.014.013c-.068.054-.081.068-.108.068a.55.55 0 0 1-.216-.054 1.374 1.374 0 0 0-.54-.095c-.607 0-1.052.392-1.052.945 0 .445.256.742.904 1.12l.445.256c.283.148.405.337.405.58 0 .337-.243.553-.634.553-.27 0-.513-.094-.648-.27-.162-.188-.243-.364-.337-.81h-.122v1.202h.095c.054-.068.094-.095.175-.095.081 0 .19.027.365.068.215.04.418.08.566.08.594 0 1.08-.458 1.08-.998 0-.377-.176-.634-.648-.917l-.837-.486c-.215-.135-.323-.324-.323-.526 0-.31.242-.526.593-.526.445 0 .675.256.85.944zm-5.89-5.01h.319c.432 0 .526.169.676 1.165.113.75.244 2.366.244 2.986 0 .3.02.376.094.376.263 0 1.277-1.127 2.367-2.668.376-.525.657-1.24.657-1.634 0-.338-.281-.638-.6-.638-.245 0-.395.15-.395.375 0 .17.056.3.263.47.131.131.188.207.188.32 0 .506-.714 1.69-1.484 2.497l-.32.339c-.075-1.522-.15-2.085-.281-2.874-.226-1.108-.226-1.127-.32-1.127a.49.49 0 0 0-.206.056c-.207.038-.79.15-1.202.225zm0 0"/><path d="M47.512 201.543a3.04 3.04 0 0 0-3.043-3.037 3.04 3.04 0 0 0-3.043 3.037 3.046 3.046 0 0 0 3.043 3.043 3.046 3.046 0 0 0 3.043-3.043zm0 0" fill="red" fill-rule="evenodd" stroke="#000" stroke-width="1.217" stroke-linejoin="round" stroke-miterlimit="10"/><path d="M188.32 163.138a3.035 3.035 0 0 0-3.036-3.036 3.037 3.037 0 0 0-3.043 3.036 3.04 3.04 0 0 0 6.08 0zm-25.6-12.798zm-25.602-25.6zm-12.803-38.405a3.04 3.04 0 0 0-3.037-3.043 3.046 3.046 0 0 0-3.043 3.043 3.04 3.04 0 0 0 6.08 0zm0 0" fill="#0f0" fill-rule="evenodd" stroke="#000" stroke-width="1.217" stroke-linejoin="round" stroke-miterlimit="10"/><text style="line-height:4.67930222px" x="-122.003" y="519.596" font-weight="400" font-size="18.717" font-family="sans-serif" letter-spacing="0" word-spacing="0" stroke-width=".468" transform="translate(312.7 -621.774) scale(1.6028)"><tspan x="-122.003" y="519.596"> <tspan x="-122.003" y="519.596" style="line-height:4.67930222px;-inkscape-font-specification:'Times New Roman, '" font-size="8.735" font-family="Times New Roman">вытолкнута и</tspan> </tspan> <tspan x="-122.003" y="526.844"> <tspan x="-122.003" y="526.844" style="line-height:4.67930222px;-inkscape-font-specification:'Times New Roman, '" font-size="8.735" font-family="Times New Roman">положена</tspan> </tspan></text><text style="line-height:4.67930222px" x="36.236" y="425.125" font-weight="400" font-size="18.717" font-family="sans-serif" letter-spacing="0" word-spacing="0" stroke-width=".468" transform="translate(312.7 -621.774) scale(1.6028)"><tspan x="36.236" y="425.125"> <tspan x="36.236" y="425.125" style="line-height:4.67930222px;-inkscape-font-specification:'Times New Roman, '" font-size="8.735" font-family="Times New Roman">вытолкнута и</tspan> </tspan> <tspan x="36.236" y="432.372"> <tspan x="36.236" y="432.372" style="line-height:4.67930222px;-inkscape-font-specification:'Times New Roman, '" font-size="8.735" font-family="Times New Roman">положена</tspan> </tspan></text><text style="line-height:4.67930222px" x="176.012" y="451.144" font-weight="400" font-size="18.717" font-family="sans-serif" letter-spacing="0" word-spacing="0" stroke-width=".468" transform="translate(312.7 -621.774) scale(1.6028)"><tspan x="176.012" y="451.144"> <tspan x="176.012" y="451.144" style="line-height:4.67930222px;-inkscape-font-specification:'Times New Roman, '" font-size="8.735" font-family="Times New Roman">вытолкнута и</tspan> </tspan> <tspan x="176.012" y="458.392"> <tspan x="176.012" y="458.392" style="line-height:4.67930222px;-inkscape-font-specification:'Times New Roman, '" font-size="8.735" font-family="Times New Roman">положена</tspan> </tspan></text><path d="M429.124 186.362l-.04-1.598h-.124l-.02.02c-.103.082-.123.103-.164.103a.836.836 0 0 1-.328-.082 2.087 2.087 0 0 0-.819-.143c-.922 0-1.598.594-1.598 1.433 0 .676.39 1.127 1.373 1.7l.676.39c.43.225.614.512.614.88 0 .512-.369.84-.963.84-.41 0-.778-.143-.983-.41-.246-.286-.368-.553-.512-1.229h-.184v1.823h.143c.082-.102.144-.143.267-.143.122 0 .286.041.553.102.327.062.634.123.86.123.901 0 1.638-.696 1.638-1.515 0-.574-.266-.963-.983-1.393l-1.27-.738c-.327-.204-.491-.491-.491-.798 0-.471.368-.8.901-.8.676 0 1.024.39 1.29 1.435zm-8.941-7.607h.485c.655 0 .798.257 1.026 1.768.171 1.14.37 3.593.37 4.534 0 .456.03.57.143.57.4 0 1.94-1.71 3.593-4.049.57-.798.999-1.882.999-2.48 0-.514-.428-.97-.913-.97-.37 0-.599.228-.599.57 0 .257.086.456.4.713.199.2.285.314.285.485 0 .77-1.084 2.566-2.253 3.792l-.485.514c-.114-2.31-.228-3.166-.428-4.363-.342-1.683-.342-1.711-.484-1.711-.086 0-.2.028-.314.085-.314.057-1.198.228-1.825.343zm0 0"/><g transform="translate(319.794 97.64) scale(1.50406)"><path d="M207.045 46.415l16.266 4.836m-56.2-76.715v23.96l7.985 23.962 15.972 15.972 15.977 7.985" fill="none" stroke="#000" stroke-width="1.198" stroke-linejoin="round" stroke-miterlimit="10"/><path d="M169.006-1.503a1.897 1.897 0 1 0-3.794-.003 1.897 1.897 0 0 0 3.794.003zm7.988 23.961a1.898 1.898 0 0 0-1.898-1.9 1.895 1.895 0 0 0-1.895 1.9 1.897 1.897 0 0 0 3.793 0z" fill-rule="evenodd" stroke="#000" stroke-width=".759" stroke-linejoin="round" stroke-miterlimit="10"/><path d="M208.94 46.415a1.894 1.894 0 0 0-1.895-1.895c-1.05 0-1.898.848-1.898 1.895a1.897 1.897 0 0 0 3.793 0z" fill-rule="evenodd" stroke="#000" stroke-width=".759" stroke-linejoin="round" stroke-miterlimit="10" fill="#ff0"/><path d="M225.018 51.48a1.898 1.898 0 1 0-3.795.006 1.898 1.898 0 0 0 3.795-.005z" fill-rule="evenodd" stroke="#000" stroke-width=".759" stroke-linejoin="round" stroke-miterlimit="10" fill="red"/><path d="M169.006-25.464a1.897 1.897 0 1 0-3.793 0 1.897 1.897 0 0 0 3.793 0z" fill-rule="evenodd" stroke="#000" stroke-width=".759" stroke-linejoin="round" stroke-miterlimit="10"/><use y="174.266" x="330.947" xlink:href="#a" width="100%" height="100%" transform="translate(-103.13 -121.417)"/><use y="175.706" x="335.966" xlink:href="#b" width="100%" height="100%" transform="translate(-103.13 -121.417)"/><path d="M167.111-25.464l-45.59 87.87" stroke-miterlimit="10" fill="none" stroke="#000" stroke-width="1.198" stroke-linejoin="round"/><g transform="translate(-103.13 -121.417)" clip-path="url(#d)"><path d="M224.652 183.824l-7.363 14.192" stroke-miterlimit="10" fill="none" stroke="#000" stroke-width="1.198" stroke-linejoin="round" stroke-dasharray="1,3"/></g><path d="M205.608 70.505l.582-2.04c.582-2.038 1.746-6.117 4-8.91 2.261-2.793 5.613-4.296 7.289-5.05l1.68-.754" stroke-miterlimit="10" fill="none" stroke="#000" stroke-width=".399" stroke-linejoin="round"/><path d="M219.158 53.75l-5.234.528 1.36 3.035zm0 0" stroke-miterlimit="10" fill-rule="evenodd" stroke="#000" stroke-width=".399" stroke-linejoin="round"/><path d="M205.338 12.695c-.3 8.788 8.702 4.061 9.565 16.653.348 5.083-2.084 8.825-3.44 10.84l-1.36 2.012" stroke-miterlimit="10" fill="none" stroke="#000" stroke-width=".399" stroke-linejoin="round"/><path d="M210.104 42.2l4.172-3.207-2.762-1.863zm0 0" stroke-miterlimit="10" fill-rule="evenodd" stroke="#000" stroke-width=".399" stroke-linejoin="round"/><path d="M192.968 38.43a2.021 2.021 0 0 0-2.023-2.019 2.021 2.021 0 0 0-2.024 2.02 2.025 2.025 0 0 0 2.024 2.023 2.025 2.025 0 0 0 2.023-2.023zm0 0" stroke-miterlimit="10" fill-rule="evenodd" stroke="#000" stroke-width=".809" stroke-linejoin="round"/></g><path d="M627.738 179.323l-.035-1.36h-.104l-.018.018c-.087.07-.104.087-.139.087a.711.711 0 0 1-.279-.07 1.775 1.775 0 0 0-.697-.121c-.784 0-1.359.505-1.359 1.22 0 .574.331.958 1.168 1.446l.575.33c.365.192.522.436.522.75 0 .435-.313.714-.819.714-.348 0-.662-.122-.836-.348-.209-.244-.314-.47-.436-1.046h-.156v1.551h.122c.07-.087.122-.122.226-.122.105 0 .244.035.47.087.28.052.54.105.732.105.767 0 1.394-.593 1.394-1.29 0-.488-.226-.819-.836-1.184l-1.08-.628c-.28-.174-.419-.418-.419-.68 0-.4.314-.679.767-.679.575 0 .871.331 1.098 1.22zm-7.606-6.471h.412c.558 0 .68.219.874 1.504.145.97.315 3.057.315 3.857 0 .388.024.485.121.485.34 0 1.65-1.455 3.057-3.444.485-.68.849-1.601.849-2.11 0-.437-.364-.825-.776-.825-.316 0-.51.194-.51.485 0 .218.073.388.34.606.17.17.242.267.242.413 0 .654-.921 2.183-1.916 3.226l-.412.436c-.097-1.964-.194-2.692-.364-3.711-.291-1.431-.291-1.455-.413-1.455a.632.632 0 0 0-.266.072c-.267.049-1.02.194-1.553.291zm0 0"/><path d="M610.029 155.442zm0 0" fill-rule="evenodd" stroke="#000" stroke-width="1.217" stroke-linejoin="round" stroke-miterlimit="10"/><text style="line-height:11.69825554px" x="-147.323" y="566.159" font-weight="400" font-size="18.717" font-family="sans-serif" letter-spacing="0" word-spacing="0" stroke-width=".468" transform="translate(312.7 -630.132) scale(1.6028)"><tspan x="-147.323" y="566.159"> <tspan x="-147.323" y="566.159" font-size="13.726">Рис. 2</tspan> </tspan></text><text style="line-height:11.69825554px" x="5.056" y="566.792" font-weight="400" font-size="18.717" font-family="sans-serif" letter-spacing="0" word-spacing="0" stroke-width=".468" transform="translate(312.7 -630.132) scale(1.6028)"><tspan x="5.056" y="566.792"> <tspan x="5.056" y="566.792" font-size="13.726">Рис. 3а</tspan> </tspan></text><text style="line-height:11.69825554px" x="142.506" y="564.071" font-weight="400" font-size="18.717" font-family="sans-serif" letter-spacing="0" word-spacing="0" stroke-width=".468" transform="translate(312.7 -630.132) scale(1.6028)"><tspan x="142.506" y="564.071"> <tspan x="142.506" y="564.071" font-size="13.726">Рис. 3б</tspan> </tspan></text><text style="line-height:0" x="-192.829" y="485.384" font-weight="400" font-size="18.717" font-family="sans-serif" letter-spacing="0" word-spacing="0" stroke-width=".468" transform="translate(312.7 -630.132) scale(1.6028)"><tspan x="-192.829" y="485.384"> <tspan x="-192.829" y="485.384" style="line-height:0;-inkscape-font-specification:'Times New Roman, '" font-size="8.735" font-family="Times New Roman">положена</tspan> </tspan></text><text style="line-height:0" x="-108.815" y="423.905" font-weight="400" font-size="18.717" font-family="sans-serif" letter-spacing="0" word-spacing="0" stroke-width=".468" transform="translate(312.7 -630.132) scale(1.6028)"><tspan x="-108.815" y="423.905"> <tspan x="-108.815" y="423.905" style="line-height:0;-inkscape-font-specification:'Times New Roman, '" font-size="8.735" font-family="Times New Roman">вытолкнуты</tspan> </tspan></text><text style="line-height:0" x="51.538" y="469.255" font-weight="400" font-size="18.717" font-family="sans-serif" letter-spacing="0" word-spacing="0" stroke-width=".468" transform="translate(312.7 -630.132) scale(1.6028)"><tspan x="51.538" y="469.255"> <tspan x="51.538" y="469.255" style="line-height:0;-inkscape-font-specification:'Times New Roman, '" font-size="8.735" font-family="Times New Roman">вытолкнуты</tspan> </tspan></text><text style="line-height:0" x="2.984" y="535.271" font-weight="400" font-size="18.717" font-family="sans-serif" letter-spacing="0" word-spacing="0" stroke-width=".468" transform="translate(312.7 -630.132) scale(1.6028)"><tspan x="2.984" y="535.271"> <tspan x="2.984" y="535.271" style="line-height:0;-inkscape-font-specification:'Times New Roman, '" font-size="8.735" font-family="Times New Roman">положена</tspan> </tspan></text><text style="line-height:0" x="178.986" y="526.321" font-weight="400" font-size="18.717" font-family="sans-serif" letter-spacing="0" word-spacing="0" stroke-width=".468" transform="translate(312.7 -630.132) scale(1.6028)"><tspan x="178.986" y="526.321"> <tspan x="178.986" y="526.321" style="line-height:0;-inkscape-font-specification:'Times New Roman, '" font-size="8.735" font-family="Times New Roman">положена</tspan> </tspan></text><path d="M137.118 124.74a3.04 3.04 0 0 0-3.043-3.037 3.04 3.04 0 0 0-3.043 3.037 3.046 3.046 0 0 0 3.043 3.043 3.046 3.046 0 0 0 3.043-3.043zm0 0M162.72 150.34a3.04 3.04 0 0 0-3.043-3.037 3.04 3.04 0 0 0-3.043 3.037 3.046 3.046 0 0 0 3.043 3.043 3.046 3.046 0 0 0 3.043-3.043zm0 0" stroke-miterlimit="10" fill="#0f0" fill-rule="evenodd" stroke="#000" stroke-width="1.217" stroke-linejoin="round"/></svg>