<svg xmlns="http://www.w3.org/2000/svg" xmlns:xlink="http://www.w3.org/1999/xlink" width="748.002" height="343.164" viewBox="0 0 561.00197 257.3726" version="1.2"><defs><symbol overflow="visible" id="b"><path d="M3.203-.969c-.64.516-.922.672-1.312.672-.5 0-.829-.328-.829-.812 0-.141.016-.266.079-.563l.25-.031c1.343-.188 2.296-.86 2.296-1.64 0-.376-.265-.61-.718-.61C1.688-3.953.28-2.47.28-1.125.281-.406.766.094 1.453.094c.64 0 1.328-.36 1.86-.969zM1.36-2.25c.313-.797.97-1.5 1.422-1.5.188 0 .313.156.313.36 0 .28-.172.593-.438.859-.344.312-.672.484-1.453.672zm0 0"/></symbol><symbol overflow="visible" id="f"><path d="M.188-3.61h.265c.36 0 .438.141.563.97.093.624.203 1.968.203 2.484 0 .25.015.312.078.312.219 0 1.062-.937 1.969-2.219.312-.437.546-1.03.546-1.359 0-.281-.234-.531-.5-.531-.203 0-.328.125-.328.312 0 .141.047.25.22.391.108.11.155.172.155.266 0 .421-.593 1.406-1.234 2.078l-.266.281c-.062-1.266-.125-1.734-.234-2.39-.188-.922-.188-.938-.266-.938a.407.407 0 0 0-.171.047c-.172.031-.657.125-1 .187zm0 0"/></symbol><symbol overflow="visible" id="j"><path d="M4.156-1.047c-.468.61-.578.703-.734.703-.078 0-.14-.078-.14-.156 0-.094.14-.656.296-1.125.266-.844.438-1.516.438-1.719 0-.36-.25-.61-.594-.61-.578 0-1.219.595-2.047 1.892l1.063-4-.032-.047C1.875-6 1.531-5.938 1-5.875v.14h.234s.016 0 .016-.015c.125-.047.344.094.344.219s-.047.36-.125.61c-.016.015-.032.14-.094.343L.172 0h.672c.36-1.375.469-1.688.828-2.234.469-.704 1.078-1.25 1.39-1.25.141 0 .25.093.25.218 0 .032-.03.157-.062.297l-.5 1.844c-.11.438-.172.719-.172.828 0 .234.156.375.39.375.454 0 .782-.234 1.313-1.016zm0 0"/></symbol><symbol overflow="visible" id="k"><path d="M2.047-1.094a2.285 2.285 0 0 0-.25.297c-.281.375-.453.516-.61.516-.093 0-.14-.063-.14-.172 0-.063.031-.172.078-.344 0-.031.016-.078.016-.094L2.5-6.062l-.047-.047c-.531.109-.875.171-1.39.234v.14c.421 0 .609.063.609.204a.567.567 0 0 1-.047.172L.406-.641a.993.993 0 0 0-.047.235c0 .328.157.5.438.5.469 0 .781-.25 1.36-1.11zm0 0"/></symbol><symbol overflow="visible" id="l"><path d="M.5-3.61h.203s.016 0 .031-.015c.11-.063.344.11.344.25 0 .078-.312 1.36-.625 2.531-.25.89-.469 1.75-.531 2-.094.422-.203.532-.594.532v.14h1.828v-.125c-.406 0-.562-.078-.562-.266 0-.125.156-.828.328-1.484.219.11.39.14.594.14 1.296 0 2.687-1.5 2.687-2.921 0-.703-.39-1.125-1.031-1.125-.578 0-1.016.297-1.531 1.015l.25-.89.03-.078s0-.016-.015-.031l-.015-.016h-.032L.484-3.75zm2.344.047c.375.016.547.25.547.766 0 .594-.25 1.36-.641 1.922-.375.531-.813.797-1.266.797-.25 0-.437-.125-.437-.328 0-.297.328-1.469.578-2.14.25-.61.766-1.048 1.219-1.017zm0 0"/></symbol><symbol overflow="visible" id="m"><path d="M1.078 0c.469-1.516.625-1.906 1.031-2.594.297-.5.547-.765.704-.765.046 0 .093.03.14.125.078.14.14.187.328.187.25 0 .406-.156.406-.437 0-.282-.171-.47-.421-.47-.204 0-.454.142-.672.376-.375.375-.735.906-.875 1.265l-.125.329.468-1.954-.015-.015c-.656.125-.735.14-1.39.25v.156c.218-.047.234-.047.296-.047.203 0 .313.078.313.25 0 .125 0 .125-.141.735L.406 0zm0 0"/></symbol><symbol overflow="visible" id="c"><path d="M1.719-3.063l-.032-.015c-.609.11-.968.172-1.171.172v.125h.187l.047-.016c.047 0 .188.031.219.063a.239.239 0 0 1 .062.156c0 .078-.047.265-.125.562L.406.016C.172.969.016 1.28-.266 1.28c-.078 0-.125-.031-.125-.078 0-.031 0-.047.032-.078a.19.19 0 0 0 .062-.14c0-.141-.125-.266-.281-.266-.172 0-.281.125-.281.297 0 .25.218.421.546.421.61 0 1.016-.53 1.297-1.625zm-.14-1.5c-.188 0-.329.157-.329.375 0 .22.125.375.328.375.188 0 .344-.171.344-.359 0-.203-.156-.39-.344-.39zm0 0"/></symbol><symbol overflow="visible" id="d"><path d="M2.89-.766l-.109.188c-.125.219-.203.297-.312.297-.14 0-.297-.235-.563-.906a8.124 8.124 0 0 0-.265-.61c1.03-.906 1.25-1.047 1.578-1.078v-.11H1.938v.11h.109c.172 0 .281.047.281.125 0 .14-.36.484-1 .984-.11.079-.187.141-.297.22L1.86-4.72l-.03-.047a8.43 8.43 0 0 1-1.095.188v.125c.344-.016.47.031.485.172-.016.11-.063.297-.157.625-.03.094-.046.172-.062.234l-.016.063L.094 0h.531l.328-1.25.297-.234c.11.312.297.734.422.984.219.438.344.578.547.578.281 0 .453-.172.765-.765zm0 0"/></symbol><symbol overflow="visible" id="g"><path d="M1.547-.797l-.281.36C1.14-.329 1.03-.25.969-.25c-.047 0-.11-.063-.11-.11 0-.062.032-.171.079-.296 0-.031.015-.078.03-.125v-.031l.626-2.25-.032-.016c-.703.14-.843.156-1.109.172v.125c.375 0 .438.015.438.156 0 .063-.016.172-.063.313L.5-1.079c-.11.406-.156.625-.156.75 0 .266.11.406.312.406.328 0 .578-.203.985-.797zm-.063-3.765c-.187 0-.328.171-.328.375 0 .218.14.375.344.375.172 0 .344-.172.344-.36 0-.203-.172-.39-.36-.39zm0 0"/></symbol><symbol overflow="visible" id="r"><path d="M4.797-.813c-.063.079-.125.157-.14.172-.204.25-.345.375-.454.375-.047 0-.078-.046-.078-.109 0-.031.016-.14.063-.313l.468-1.75a.792.792 0 0 0 .032-.203c0-.25-.172-.437-.422-.437-.125 0-.266.047-.438.156-.344.219-.625.563-1.11 1.328.188-.531.282-.922.282-1.062 0-.25-.156-.422-.39-.422-.422 0-.922.469-1.563 1.469l.406-1.454-.016-.015c-.39.094-.53.11-1.109.219v.109H.5c.172 0 .266.047.266.156 0 .078-.157.719-.407 1.594-.171.578-.187.64-.28 1h.53c.329-1.11.438-1.36.672-1.734.39-.594.813-.97 1.047-.97.094 0 .14.063.14.173 0 .062-.218.906-.655 2.531h.515c.281-1.094.422-1.438.766-1.938.344-.468.703-.765.906-.765.063 0 .125.062.125.14 0 .032 0 .11-.047.235l-.406 1.61c-.063.265-.078.39-.078.452 0 .22.094.329.281.329.313 0 .625-.235 1-.75l.031-.047zm0 0"/></symbol><symbol overflow="visible" id="h"><path d="M4.61-1.61c.093 0 .234 0 .234-.124 0-.141-.14-.141-.235-.141H.813c-.11 0-.235 0-.235.14 0 .126.125.126.235.126zm0 0"/></symbol><symbol overflow="visible" id="i"><path d="M2.031-4.703l-1.25.625v.094c.078-.032.156-.063.188-.079a.912.912 0 0 1 .312-.062c.14 0 .203.094.203.313v3.171c0 .22-.062.375-.171.454-.094.062-.204.078-.485.078V0H2.75v-.11c-.563 0-.672-.077-.672-.406v-4.187zm0 0"/></symbol><symbol overflow="visible" id="n"><path d="M2.969 2.156c0-.031 0-.047-.156-.203C1.687.828 1.405-.875 1.405-2.234c0-1.563.344-3.125 1.438-4.235.125-.11.125-.125.125-.156 0-.063-.047-.094-.094-.094-.094 0-.89.61-1.422 1.75C1-3.984.891-2.984.891-2.234c0 .687.093 1.78.593 2.796.532 1.094 1.297 1.672 1.391 1.672.047 0 .094-.015.094-.078zm0 0"/></symbol><symbol overflow="visible" id="o"><path d="M2.594-2.234c0-.704-.11-1.782-.594-2.797C1.453-6.141.687-6.72.594-6.72c-.047 0-.078.047-.078.094 0 .031 0 .047.171.203.875.89 1.375 2.313 1.375 4.188C2.063-.704 1.734.875.625 2c-.11.11-.11.125-.11.156 0 .047.032.078.079.078.094 0 .906-.609 1.422-1.734.468-1 .578-1.984.578-2.734zm0 0"/></symbol><clipPath id="a"><path d="M40 104.129h112v110.61H40zm0 0"/></clipPath><clipPath id="e"><path d="M35.594 168H162.5v1H35.594zm0 0"/></clipPath><clipPath id="p"><path d="M44 318.96h105V452H44zm0 0"/></clipPath><clipPath id="q"><path d="M37.512 372H158v2H37.512zm0 0"/></clipPath></defs><g transform="translate(14.395 -93.828) scale(1.18174)" clip-path="url(#a)"><path d="M92.758 168.395L80.22 194.824l21.477 8.73-16.853 10.02-32.227.563-11.308-24.282 10.28-14.23-8.019-29.258 6.043-19.363 22.38 8.543 7.241 15.11 7.871-28.005 53.625-8.192-16.742 63.138 16.453-3.29 9.211 15.77-20.625 21.684z" stroke-miterlimit="10" fill="none" stroke="#000" stroke-width="1.198" stroke-linejoin="round"/></g><path d="M126.254 105.17a2.246 2.246 0 0 0-2.243-2.243 2.242 2.242 0 0 0-2.24 2.243 2.242 2.242 0 0 0 2.24 2.244 2.246 2.246 0 0 0 2.243-2.244zm0 0" stroke-miterlimit="10" fill-rule="evenodd" stroke="#000" stroke-width=".897" stroke-linejoin="round"/><use height="100%" width="100%" y="160.789" x="49.777" xlink:href="#b" transform="translate(14.395 -93.828) scale(1.18174)"/><use height="100%" width="100%" y="162.228" x="54.796" xlink:href="#c" transform="translate(14.395 -93.828) scale(1.18174)"/><use height="100%" width="100%" y="163.163" x="118.345" xlink:href="#b" transform="translate(14.395 -93.828) scale(1.18174)"/><use height="100%" width="100%" y="164.877" x="122.319" xlink:href="#d" transform="translate(14.395 -93.828) scale(1.18174)"/><g transform="translate(14.395 -93.828) scale(1.18174)" clip-path="url(#e)"><path d="M92.758 168.395l-56.965.003m56.965-.003H162.3" stroke-miterlimit="10" fill="none" stroke="#000" stroke-width=".399" stroke-linejoin="round" stroke-dasharray="1"/></g><path d="M110.268 84.208a2.238 2.238 0 0 0-2.239-2.24 2.239 2.239 0 0 0-2.243 2.24 2.24 2.24 0 0 0 2.243 2.244 2.239 2.239 0 0 0 2.24-2.244zm0 0" stroke-miterlimit="10" fill-rule="evenodd" stroke="#000" stroke-width=".897" stroke-linejoin="round"/><use height="100%" width="100%" y="173.84" x="81.924" xlink:href="#f" transform="translate(14.395 -93.828) scale(1.18174)"/><use height="100%" width="100%" y="175.279" x="85.898" xlink:href="#g" transform="translate(14.395 -93.828) scale(1.18174)"/><path d="M108.029 84.208l15.982 20.962" stroke-miterlimit="10" fill="none" stroke="#000" stroke-width=".472" stroke-linejoin="round"/><use height="100%" width="100%" y="183.495" x="68.352" xlink:href="#b" transform="translate(14.395 -93.828) scale(1.18174)"/><use height="100%" width="100%" y="185.072" x="72.33" xlink:href="#g" transform="translate(14.395 -93.828) scale(1.18174)"/><use height="100%" width="100%" y="185.072" x="74.265" xlink:href="#h" transform="translate(14.395 -93.828) scale(1.18174)"/><use height="100%" width="100%" y="185.072" x="79.675" xlink:href="#i" transform="translate(14.395 -93.828) scale(1.18174)"/><use height="100%" width="100%" y="182.847" x="104.814" xlink:href="#b" transform="translate(14.286 -97.652) scale(1.18174)"/><use height="100%" width="100%" y="184.286" x="108.789" xlink:href="#g" transform="translate(14.286 -97.652) scale(1.18174)"/><g transform="translate(14.395 -93.828) scale(1.18174)"><use height="100%" width="100%" y="152.259" x="82.85" xlink:href="#j"/><use height="100%" width="100%" y="152.259" x="87.326" xlink:href="#b"/><use height="100%" width="100%" y="152.259" x="91.3" xlink:href="#k"/><use height="100%" width="100%" y="152.259" x="93.789" xlink:href="#l"/><use height="100%" width="100%" y="152.259" x="98.264" xlink:href="#b"/><use height="100%" width="100%" y="152.259" x="102.239" xlink:href="#m"/></g><use height="100%" width="100%" y="152.259" x="105.927" xlink:href="#n" transform="translate(14.395 -93.828) scale(1.18174)"/><use height="100%" width="100%" y="152.259" x="109.4" xlink:href="#b" transform="translate(14.395 -93.828) scale(1.18174)"/><use height="100%" width="100%" y="153.698" x="114.418" xlink:href="#c" transform="translate(14.395 -93.828) scale(1.18174)"/><use height="100%" width="100%" y="152.259" x="117.025" xlink:href="#o" transform="translate(14.395 -93.828) scale(1.18174)"/><g transform="translate(101.693 -23.538)"><g clip-path="url(#p)" transform="translate(140.404 -331.748) scale(1.17562)"><path d="M75.099 326.922l26.94 46.02 28.518-35.005 16.998 54.829L88.55 405.04l-4.382 29.108 16.239 7.36-27.813 9.456-21.32-34.693 11.449-10.64-17.77-58.476z" stroke-miterlimit="10" fill="none" stroke="#000" stroke-width="1.198" stroke-linejoin="round"/></g><g clip-path="url(#q)" transform="translate(140.403 -333.247) scale(1.17562)"><path d="M102.04 372.941l-64.33-.16m64.33.16l54.796-.16" stroke-miterlimit="10" fill="none" stroke="#000" stroke-width=".399" stroke-linejoin="round" stroke-dasharray="1"/></g><path d="M262.589 105.19a2.23 2.23 0 0 0-2.227-2.231 2.234 2.234 0 0 0-2.232 2.23 2.23 2.23 0 0 0 4.459 0zm0 0" stroke-miterlimit="10" fill-rule="evenodd" stroke="#000" stroke-width=".892" stroke-linejoin="round"/><use xlink:href="#b" x="61.003" y="390.576" width="100%" height="100%" transform="translate(135.922 -342.435) scale(1.17562)"/><use xlink:href="#c" x="66.022" y="392.016" width="100%" height="100%" transform="translate(135.922 -342.435) scale(1.17562)"/><use xlink:href="#f" x="94.902" y="380.082" width="100%" height="100%" transform="translate(140.403 -333.247) scale(1.17562)"/><use xlink:href="#g" x="98.876" y="381.521" width="100%" height="100%" transform="translate(140.403 -333.247) scale(1.17562)"/><use xlink:href="#b" x="127.809" y="378.493" width="100%" height="100%" transform="translate(148.994 -329.138) scale(1.17562)"/><use xlink:href="#d" x="131.783" y="380.207" width="100%" height="100%" transform="translate(148.994 -329.138) scale(1.17562)"/><path d="M316.098 128.496a2.23 2.23 0 1 0-2.227 2.232c1.23 0 2.227-.997 2.227-2.232zm0 0" stroke-miterlimit="10" fill-rule="evenodd" stroke="#000" stroke-width=".892" stroke-linejoin="round"/><path d="M260.363 105.19l53.509 23.305" stroke-miterlimit="10" fill="none" stroke="#000" stroke-width=".469" stroke-linejoin="round" stroke-dasharray="3.993"/><use xlink:href="#f" x="151.283" y="394.881" width="100%" height="100%" transform="translate(140.403 -333.247) scale(1.17562)"/><use xlink:href="#r" x="155.257" y="396.224" width="100%" height="100%" transform="translate(140.403 -333.247) scale(1.17562)"/><path d="M281.277 121.438l-8.23 9.028c-21.33 33.498 67.786 20.13 59.794 47.025" stroke-miterlimit="10" fill="none" stroke="#000" stroke-width=".469" stroke-linejoin="round"/><path d="M285.499 117.24l-5.543 2.746 2.76 2.773zm0 0" stroke-miterlimit="10" fill-rule="evenodd" stroke="#000" stroke-width=".469" stroke-linejoin="round"/><use height="100%" width="100%" y="491.735" x="90.229" xlink:href="#f" transform="translate(236.002 -372.762) scale(1.17562)"/><use height="100%" width="100%" y="493.082" x="94.202" xlink:href="#r" transform="translate(236.002 -372.762) scale(1.17562)"/><text style="line-height:4.50000238px" x="291.475" y="186.725" font-weight="400" font-size="29.999" letter-spacing="0" word-spacing="0" font-family="sans-serif" stroke-width=".75"><tspan x="291.475" y="186.725"><tspan x="291.475" y="186.725" style="line-height:4.50000238px;-inkscape-font-specification:'Times New Roman, '" font-size="11" font-family="Times New Roman">диагональ будет</tspan> </tspan> <tspan x="291.475" y="196.13"> <tspan x="291.475" y="196.13" style="line-height:4.50000238px;-inkscape-font-specification:'Times New Roman, '" font-size="11" font-family="Times New Roman">добавлена когда прямая</tspan> </tspan> <tspan x="291.475" y="205.533"> <tspan x="291.475" y="205.533" style="line-height:4.50000238px;-inkscape-font-specification:'Times New Roman, '" font-size="11" font-family="Times New Roman">достигнет</tspan></tspan></text></g><text style="line-height:18.75px;-inkscape-font-specification:'Times New Roman, '" x="82.066" y="225.557" font-weight="400" font-size="15" letter-spacing="0" word-spacing="0" font-family="Times New Roman" stroke-width=".75"><tspan x="82.066" y="225.557" style="-inkscape-font-specification:'Times New Roman, '"><tspan x="82.066" y="225.557" style="-inkscape-font-specification:'Times New Roman, '">Split вершина</tspan></tspan></text><text style="line-height:18.75px;-inkscape-font-specification:'Times New Roman, '" x="387.225" y="225.789" font-weight="400" font-size="15" letter-spacing="0" word-spacing="0" font-family="Times New Roman" stroke-width=".75"><tspan x="387.225" y="225.789" style="-inkscape-font-specification:'Times New Roman, '"><tspan x="387.225" y="225.789" style="-inkscape-font-specification:'Times New Roman, '">Merge вершина</tspan></tspan></text></svg>