<svg xmlns="http://www.w3.org/2000/svg" xmlns:xlink="http://www.w3.org/1999/xlink" width="659.92" height="277.951" viewBox="0 0 494.94025 208.46321" version="1.2"><defs><symbol overflow="visible" id="a"><path d="M.14-.89c-.015.03-.046.062-.046.093 0 .047.062.11.11.11.046 0 .077-.016.327-.266.063-.063.25-.235.313-.313C.938-.562 1.204.11 1.859.11c.36 0 .672-.203.86-.343.125-.094.547-.438.547-.532 0-.015-.032-.109-.11-.109-.031 0-.047.016-.125.094-.562.562-.906.687-1.156.687-.406 0-.547-.469-.547-1.156 0-.063.016-.469.047-.516.016-.03.016-.046.188-.218.734-.735 2-2.235 2-3.625 0-.157 0-.704-.532-.704-.734 0-1.406 1.485-1.484 1.688-.438.969-.719 2.016-.719 3.078zm1.282-1.25c.016-.094.39-2.079.906-3.126.235-.484.422-.843.719-.843s.297.312.297.453c0 1.5-1.5 3.062-1.922 3.515zm0 0"/></symbol><symbol overflow="visible" id="c"><path d="M.5-3.61h.203s.016 0 .031-.015c.11-.063.344.11.344.25 0 .078-.312 1.36-.625 2.531-.25.89-.469 1.75-.531 2-.094.422-.203.532-.594.532v.14h1.828v-.125c-.406 0-.562-.078-.562-.266 0-.125.156-.828.328-1.484.219.11.39.14.594.14 1.296 0 2.687-1.5 2.687-2.921 0-.703-.39-1.125-1.031-1.125-.578 0-1.016.297-1.531 1.015l.25-.89.03-.078s0-.016-.015-.031l-.015-.016h-.032L.484-3.75zm2.344.047c.375.016.547.25.547.766 0 .594-.25 1.36-.641 1.922-.375.531-.813.797-1.266.797-.25 0-.437-.125-.437-.328 0-.297.328-1.469.578-2.14.25-.61.766-1.048 1.219-1.017zm0 0"/></symbol><symbol overflow="visible" id="d"><path d="M3.5 1.703h-.156c-.328 0-.516-.078-.5-.25 0-.031 0-.062.015-.094l1.47-5.171h-.657l-.14.421c-.141-.421-.313-.562-.688-.562C1.672-3.953.219-2.297.219-.938c0 .641.36 1.032.922 1.032.625 0 1.046-.328 1.843-1.469L2.188 1.25c-.126.36-.266.438-.844.484v.141H3.5zM2.875-3.75a.53.53 0 0 1 .531.547c0 .734-.61 2.015-1.219 2.515-.234.204-.484.313-.687.313-.313 0-.5-.266-.5-.688 0-.671.453-1.656 1.047-2.25.265-.28.562-.437.828-.437zm0 0"/></symbol><symbol overflow="visible" id="e"><path d="M1.078 0c.469-1.516.625-1.906 1.031-2.594.297-.5.547-.765.704-.765.046 0 .093.03.14.125.078.14.14.187.328.187.25 0 .406-.156.406-.437 0-.282-.171-.47-.421-.47-.204 0-.454.142-.672.376-.375.375-.735.906-.875 1.265l-.125.329.468-1.954-.015-.015c-.656.125-.735.14-1.39.25v.156c.218-.047.234-.047.296-.047.203 0 .313.078.313.25 0 .125 0 .125-.141.735L.406 0zm0 0"/></symbol><symbol overflow="visible" id="k"><path d="M3.313-2.86v-3.046c.28 0 .562.031.843.11.203.062.407.14.547.296.25.25.406.594.406.953 0 .453-.125.922-.453 1.25-.343.344-.86.438-1.343.438zM2.75-6.202c-.688 0-1.39.156-1.875.656a1.558 1.558 0 0 0-.484 1.14c0 .188 0 .391.14.516.063.063.14.11.219.11.094 0 .188-.063.266-.125.062-.078.078-.188.078-.297 0-.078-.032-.156-.063-.234a1.708 1.708 0 0 1-.062-.375c0-.266.156-.5.328-.688.156-.156.375-.234.578-.297a3.28 3.28 0 0 1 .875-.11v3.72c0 .359-.031.718-.094 1.062-.062.234-.125.469-.297.625-.14.156-.312.313-.546.313-.11 0-.22-.016-.297-.094-.094-.094-.125-.25-.125-.375 0-.172 0-.344-.125-.453-.047-.047-.141-.047-.22-.047-.093 0-.202 0-.265.062a.546.546 0 0 0-.125.344c0 .203.047.406.188.547.203.203.484.297.765.297.407 0 .829-.125 1.141-.422.453-.453.563-1.11.563-1.734v-.532c.687 0 1.374-.203 1.874-.687.344-.36.532-.844.532-1.328 0-.36-.063-.735-.313-1-.234-.22-.531-.329-.828-.422-.422-.125-.828-.157-1.266-.157v-.234zm0 0"/></symbol><symbol overflow="visible" id="l"><path d="M.172-3.563c.11-.03.187-.03.281-.03.234 0 .313.14.313.562v2.265C.766-.28.64-.14.14-.14V0h1.984v-.14c-.469-.016-.61-.11-.61-.454v-2.531c0-.016.079-.11.141-.172.219-.203.61-.36.922-.36.39 0 .594.313.594.938v1.953c0 .5-.094.594-.61.625V0h2v-.14c-.5 0-.64-.157-.64-.704v-2.265c.265-.375.562-.547.969-.547.515 0 .671.25.671.984v1.89c0 .516-.062.579-.578.641V0h1.954v-.14l-.235-.016c-.266-.016-.375-.172-.375-.531v-1.844c0-1.047-.36-1.594-1.047-1.594-.515 0-.968.234-1.453.766-.172-.516-.469-.766-.953-.766-.39 0-.64.125-1.39.703v-.672l-.063-.031c-.453.172-.766.281-1.25.406zm0 0"/></symbol><symbol overflow="visible" id="m"><path d="M3.656-1.469c-.437.688-.812.938-1.39.938-.516 0-.891-.25-1.157-.766-.156-.344-.218-.64-.234-1.187h2.75c-.078-.579-.156-.844-.39-1.125-.266-.329-.672-.516-1.141-.516-.453 0-.86.172-1.203.469-.422.375-.672 1-.672 1.734C.219-.688.875.094 1.89.094c.859 0 1.53-.531 1.906-1.5zM.891-2.766c.093-.703.406-1.03.937-1.03.547 0 .766.25.89 1.03zm0 0"/></symbol><symbol overflow="visible" id="n"><path d="M.063-3.484c.124-.032.203-.047.312-.047.219 0 .313.14.313.547V-.75c0 .453-.063.516-.641.61V0h2.14v-.14c-.609-.016-.75-.157-.75-.672v-2c0-.297.375-.735.625-.735.047 0 .126.031.235.125.14.125.234.188.36.188.202 0 .343-.157.343-.407 0-.296-.188-.484-.5-.484-.375 0-.625.219-1.063.844v-.813l-.046-.031c-.485.203-.797.313-1.329.484zm0 0"/></symbol><symbol overflow="visible" id="o"><path d="M4.203-3.469v-.36h-.687c-.172 0-.313-.015-.485-.077l-.203-.078a1.96 1.96 0 0 0-.719-.141A1.47 1.47 0 0 0 .625-2.656c0 .562.234.906.828 1.203-.172.156-.328.312-.39.36-.297.25-.407.437-.407.609 0 .187.11.296.469.468C.5.454.25.75.25 1.078c0 .484.703.875 1.547.875.672 0 1.375-.234 1.844-.61.328-.28.484-.562.484-.905 0-.547-.422-.938-1.078-.954L1.89-.578c-.47-.016-.704-.094-.704-.235 0-.187.297-.5.547-.562.079 0 .141.016.157.016.171.015.296.03.343.03.329 0 .688-.14.97-.374.296-.25.437-.578.437-1.016 0-.265-.047-.469-.172-.75zM1.313.016C1.609.078 2.327.14 2.766.14c.812 0 1.109.109 1.109.437 0 .516-.672.86-1.688.86-.796 0-1.312-.25-1.312-.657 0-.203.063-.312.438-.765zm.046-3.047c0-.516.25-.844.657-.844.28 0 .515.156.656.422.172.312.281.734.281 1.078 0 .5-.265.813-.672.813-.547 0-.922-.579-.922-1.438zm0 0"/></symbol><symbol overflow="visible" id="j"><path d="M2.281-4.031h-.906v-1.032c0-.093 0-.125-.063-.125-.062.079-.109.172-.171.25-.344.5-.735.922-.875.97-.094.062-.157.124-.157.155 0 .032.016.047.047.063h.469v2.703c0 .75.266 1.14.797 1.14.437 0 .781-.218 1.078-.687l-.125-.094c-.188.22-.328.313-.531.313-.328 0-.469-.25-.469-.813V-3.75h.906zm0 0"/></symbol><symbol overflow="visible" id="f"><path d="M2.813-2.813L2.78-4.03h-.094l-.015.015c-.078.063-.094.079-.125.079A.638.638 0 0 1 2.297-4a1.592 1.592 0 0 0-.625-.11c-.703 0-1.219.454-1.219 1.094 0 .516.297.86 1.047 1.297l.516.297c.328.172.468.39.468.672 0 .39-.28.64-.734.64-.313 0-.594-.109-.75-.312C.812-.64.719-.844.61-1.359H.468V.03h.11C.64-.048.687-.08.78-.08c.094 0 .219.032.422.079.25.047.484.094.656.094.688 0 1.25-.531 1.25-1.157 0-.437-.203-.734-.75-1.062l-.968-.563c-.25-.156-.375-.374-.375-.609 0-.36.28-.61.687-.61.516 0 .781.298.984 1.095zm0 0"/></symbol><symbol overflow="visible" id="g"><path d="M.078-3.516c.078-.015.14-.015.219-.015.312 0 .375.094.375.515v4.188c0 .469-.094.562-.625.625v.14h2.172v-.156c-.672-.015-.797-.11-.797-.672V-.297c.312.297.531.39.906.39 1.063 0 1.875-1 1.875-2.312 0-1.11-.625-1.906-1.484-1.906-.5 0-.906.234-1.297.719v-.688l-.047-.031c-.484.188-.797.313-1.297.469zm1.344.532c0-.282.5-.594.922-.594.656 0 1.094.672 1.094 1.719C3.438-.875 3-.203 2.359-.203c-.421 0-.937-.313-.937-.578zm0 0"/></symbol><symbol overflow="visible" id="h"><path d="M.172-5.578h.047c.11-.016.218-.016.281-.016.281 0 .375.125.375.547V-.78c0 .484-.125.61-.688.64V0h2.11v-.14c-.563-.032-.672-.126-.672-.61v-5.344l-.031-.015c-.469.14-.813.234-1.422.39zm0 0"/></symbol><symbol overflow="visible" id="i"><path d="M1.563-4.125l-1.391.5v.14L.25-3.5c.11-.016.219-.031.313-.031.203 0 .28.14.28.547v2.078c0 .64-.077.734-.702.765V0h2.125v-.14c-.594-.032-.657-.126-.657-.766v-3.188zM1.14-6.109a.45.45 0 0 0-.438.453c0 .25.188.453.438.453a.457.457 0 0 0 .468-.453.457.457 0 0 0-.468-.453zm0 0"/></symbol><symbol overflow="visible" id="q"><path d="M6.156-2.922c.125 0 .297 0 .297-.187 0-.172-.172-.172-.297-.172H.796c-.124 0-.296 0-.296.172 0 .187.172.187.313.187zm0 1.735c.125 0 .297 0 .297-.188 0-.172-.172-.172-.297-.172H.813c-.141 0-.313 0-.313.172 0 .188.172.188.297.188zm0 0"/></symbol><symbol overflow="visible" id="r"><path d="M1.781-3.344c.047-.094.047-.156.047-.187 0-.219-.203-.36-.39-.36-.282 0-.344.22-.375.313L.219-.531c0 .015-.016.062-.016.094 0 .078.188.124.234.124.016 0 .047 0 .094-.093zm0 0"/></symbol><clipPath id="b"><path d="M71.852 206H181v1H71.852zm0 0"/></clipPath><clipPath id="p"><path d="M233 206h108.32v1H233zm0 0"/></clipPath></defs><path d="M36.072 89.715l-2.375 8.336c-2.383 8.328-7.148 25-9.524 33.329l-2.382 8.335 3.333-.433c3.333-.433 9.998-1.3 15.344 1.81 5.345 3.109 23.693 6.002 29.066 2.892 5.366-3.102 10.956-3.69 13.75-3.975l2.789-.294-2.376-8.335c-2.382-8.33-7.14-25-9.523-33.33l-2.383-8.335 1.09-1.978c1.09-1.977 3.277-5.925 3.843-10.117.566-4.192-.482-8.636-1.523-12.416-1.048-3.794-2.096-6.925-.957-10.18 1.139-3.25 4.458-6.624 7.406-9.433 2.949-2.81 5.527-5.045 8.587-7.12 3.054-2.075 6.59-3.99 8.357-4.947l1.768-.957 2.438 1.18c2.439 1.18 7.309 3.543 11.145 5.562 3.843 2.02 6.645 3.703 9.558 6.107 2.914 2.404 5.947 5.54 8.37 8.692 2.433 3.15 4.263 6.323 5.304 9.67a23.116 23.116 0 0 1 .79 10.25c-.503 3.39-1.76 6.652-2.767 9.664-1.006 3.018-1.76 5.778-2.138 8.412-.377 2.642-.377 5.15-.657 8.378-.286 3.22-.852 7.169-1.23 10.81-.377 3.64-.566 6.98-.908 10.41-.35 3.43-.852 6.946-.978 10.586-.126 3.64.126 7.406 1.006 10.418.88 3.018 2.39 5.275 3.92 7.462 1.537 2.187 3.095 4.304 3.87 5.36l.776 1.06 2.362-.28 9.412-1.116 2.354-.28.566-1.795c.56-1.79 1.677-5.373 2.124-9.12.455-3.751.23-7.671-1.844-13.784-2.075-6.114-6.002-14.422-7.945-21.248-1.95-6.82-1.914-12.151-.265-16.574 1.649-4.43 4.919-7.945 7.183-11.962 2.264-4.018 3.52-8.54 2.32-14.967-1.202-6.435-4.864-14.778-9.831-21.863-4.975-7.078-11.25-12.905-18.034-16.874-6.785-3.975-14.073-6.1-21.696-5.876-7.623.224-15.588 2.795-22.31 6.715-6.728 3.92-12.22 9.174-16.63 13.345-4.408 4.165-7.727 7.246-7.168 12.696.566 5.457 5.017 13.29 5.8 20.472.782 7.183-2.097 13.716-3.725 19.285-1.628 5.569-2.005 10.18-4.884 12.04-2.886 1.85-8.266.956-9.775-3.047-1.51-4.004-6.128-14.506-8.47-13.57l-2.332.93" fill="#a5a5a5" fill-rule="evenodd"/><use height="100%" width="100%" y="205.174" x="175.652" xlink:href="#a" transform="translate(-121.377 -258.464) scale(1.78872)"/><path d="M103.758 32.567a3.393 3.393 0 0 0-3.396-3.39 3.393 3.393 0 1 0 0 6.785 3.395 3.395 0 0 0 3.396-3.395zm0 0" stroke-miterlimit="10" fill-rule="evenodd" stroke="#000" stroke-width="1.358" stroke-linejoin="round"/><g transform="translate(-121.377 -258.464) scale(1.78872)" clip-path="url(#b)"><path d="M72.05 206.75h107.821" stroke-miterlimit="10" fill="none" stroke="#000" stroke-width=".399" stroke-linejoin="round"/></g><path d="M36.072 89.715l-14.281 50m50-50l14.282 50" stroke-miterlimit="10" fill="none" stroke="#000" stroke-width="2.143" stroke-linejoin="round"/><path d="M32.775 110.25a3.394 3.394 0 1 0-6.787-.004 3.394 3.394 0 0 0 6.787.004zm47.38 0a3.393 3.393 0 0 0-3.39-3.396 3.4 3.4 0 0 0-3.395 3.396 3.393 3.393 0 0 0 6.785 0zm0 0" stroke-miterlimit="10" fill-rule="evenodd" stroke="#000" stroke-width="1.358" stroke-linejoin="round"/><use height="100%" width="100%" y="202.242" x="77.229" xlink:href="#c" transform="translate(-121.377 -258.464) scale(1.78872)"/><use height="100%" width="100%" y="202.215" x="112.471" xlink:href="#d" transform="translate(-121.377 -258.464) scale(1.78872)"/><path d="M71.792 89.715l2.005-2.893c2.005-2.886 6.022-8.664 4.828-14.617-1.188-5.953-7.581-12.08-4.828-18.712 2.76-6.638 14.659-13.78 20.612-17.35l5.953-3.576 4.765 2.382c4.758 2.383 14.282 7.14 21.43 13.1 7.14 5.947 11.9 13.095 12.905 19.27 1 6.186-1.754 11.405-3.137 14.018l-1.377 2.606-.628 1.887c-.63 1.88-1.887 5.653-2.544 10.069-.65 4.415-.705 9.48-1.208 14.505-.504 5.024-1.454 9.999-1.433 15.756.028 5.75 1.034 12.277 2.816 17.482 1.789 5.199 4.353 9.07 5.632 11.005l1.278 1.942" stroke-miterlimit="10" fill="none" stroke="#000" stroke-width="2.143" stroke-linejoin="round" stroke-dasharray="3.993"/><path d="M134.41 110.453a3.389 3.389 0 0 0-3.388-3.396 3.39 3.39 0 0 0-3.396 3.396 3.389 3.389 0 0 0 3.396 3.389 3.388 3.388 0 0 0 3.388-3.39zm0 0" stroke-miterlimit="10" fill-rule="evenodd" stroke="#000" stroke-width="1.358" stroke-linejoin="round"/><use height="100%" width="100%" y="203.241" x="134.561" xlink:href="#e" transform="translate(-121.377 -258.464) scale(1.78872)"/><g transform="translate(-121.377 -258.464) scale(1.78872)"><use height="100%" width="100%" y="165.555" x="150.015" xlink:href="#f"/><use height="100%" width="100%" y="165.555" x="153.497" xlink:href="#g"/><use height="100%" width="100%" y="165.555" x="157.973" xlink:href="#h"/><use height="100%" width="100%" y="165.555" x="160.462" xlink:href="#i"/><use height="100%" width="100%" y="165.555" x="162.95" xlink:href="#j"/></g><path d="M107.028 28.947l34.712 4.52" stroke-miterlimit="10" fill="none" stroke="#000" stroke-width=".714" stroke-linejoin="round"/><path d="M107.028 28.947l8.468 4.109.769-5.905zm0 0" stroke-miterlimit="10" fill-rule="evenodd" stroke="#000" stroke-width=".714" stroke-linejoin="round"/><use height="100%" width="100%" y="220.899" x="96.087" xlink:href="#k" transform="translate(-121.377 -258.464) scale(1.78872)"/><text style="line-height:18.7499733px" x="178.761" y="37.519" font-weight="400" font-size="15" letter-spacing="0" word-spacing="0" font-family="sans-serif" stroke-width=".749"><tspan x="178.761" y="37.519"> <tspan x="178.761" y="37.519" style="-inkscape-font-specification:'Times New Roman, '" font-family="Times New Roman">вершина</tspan> </tspan></text><path d="M325.172 106.118l2.166-7.568c2.165-7.575 6.488-22.724 8.654-30.292l2.165-7.575h32.45l2.165 7.575c2.166 7.568 6.49 22.717 9.112 32.076 2.615 9.358 3.53 12.927 3.625 16.133.102 3.206-.61 6.057-2.495 9.105-1.886 3.054-4.946 6.305-6.724 8.647-1.784 2.337-2.292 3.765-1.48 5.696.813 1.93 2.953 4.374 5.194 6.61 2.24 2.24 4.59 4.272 7.365 6.158 2.775 1.886 5.988 3.625 7.594 4.495l1.606.87 2.216-1.073c2.216-1.073 6.64-3.22 10.133-5.054 3.486-1.835 6.032-3.36 8.686-5.55 2.648-2.183 5.397-5.034 7.384-7.117 1.988-2.09 3.207-3.41 3.975-5.035.762-1.625 1.066-3.562 1.016-5.695-.051-2.14-.457-4.476-1.22-6.508-.768-2.038-1.885-3.765-3.263-5.65-1.378-1.88-3.003-3.912-4.622-5.645-1.62-1.733-3.225-3.168-4.025-3.886l-.807-.717.038-1.276c.038-1.283.12-3.842.159-5.118l.038-1.282.508-1.016c.508-1.016 1.53-3.054 2.883-5.086 1.352-2.032 3.04-4.063 4.876-6.095 1.835-2.032 3.816-4.057 5.377-6.635 1.569-2.578 2.724-5.708 3.632-8.96.902-3.243 1.556-6.621 1.784-9.396.235-2.768.045-4.933-.66-7.485-.698-2.553-1.911-5.486-2.514-6.953l-.603-1.466 2.14.254c2.139.254 6.418.768 8.558 1.016l2.14.26.508 1.625c.508 1.626 1.53 4.883 1.936 8.286.406 3.41.203 6.97-1.682 12.527-1.886 5.555-5.448 13.105-7.74 19.422-2.3 6.324-3.314 11.41-3.416 15.524-.102 4.12.71 7.276 1.886 10.882 1.168 3.613 2.698 7.683 3.206 13.429.514 5.746 0 13.168-3.105 19.524-3.104 6.362-8.812 11.65-14.977 15.257-6.165 3.613-12.788 5.543-19.715 5.34-6.927-.204-14.158-2.54-20.273-6.102-6.114-3.556-11.104-8.337-14.47-13.625-3.358-5.29-5.092-11.086-4.584-16.527.508-5.448 3.264-10.527 4.94-15.918 1.683-5.39 2.298-11.086.82-15.663-1.48-4.578-5.042-8.038-9.27-9.36-4.23-1.32-9.118-.507-12.788 2.338-3.67 2.85-6.114 7.733-9.327 10.12-3.213 2.38-7.194 2.273-9.18 2.216l-1.995-.057" fill="#a6a6a6" fill-rule="evenodd"/><use height="100%" width="100%" y="205.174" x="336.899" xlink:href="#a" transform="translate(-67.011 -255.894) scale(1.6254)"/><path d="M399.655 158.048a3.089 3.089 0 0 0-3.086-3.086 3.084 3.084 0 0 0 0 6.165 3.084 3.084 0 0 0 3.086-3.08zm0 0" stroke-miterlimit="10" fill-rule="evenodd" stroke="#000" stroke-width="1.234" stroke-linejoin="round"/><use height="100%" width="100%" y="182.978" x="262.192" xlink:href="#k" transform="translate(-67.011 -255.894) scale(1.6254)"/><g transform="translate(-83.718 -254.583) scale(1.6254)"><use height="100%" width="100%" y="253.9" x="204.607" xlink:href="#l"/><use height="100%" width="100%" y="253.9" x="211.572" xlink:href="#m"/><use height="100%" width="100%" y="253.9" x="215.546" xlink:href="#n"/></g><g transform="translate(-83.718 -254.583) scale(1.6254)"><use height="100%" width="100%" y="253.9" x="218.366" xlink:href="#o"/><use height="100%" width="100%" y="253.9" x="222.841" xlink:href="#m"/></g><g transform="translate(-67.011 -255.894) scale(1.6254)" clip-path="url(#p)"><path d="M233.297 206.75h107.82" stroke-miterlimit="10" fill="none" stroke="#000" stroke-width=".399" stroke-linejoin="round"/></g><path d="M338.157 60.683l-12.985 45.435m45.434-45.435l12.984 45.435" stroke-miterlimit="10" fill="none" stroke="#000" stroke-width="1.947" stroke-linejoin="round"/><path d="M335.674 80.156a3.084 3.084 0 0 0-6.165 0 3.084 3.084 0 0 0 3.08 3.086 3.089 3.089 0 0 0 3.085-3.086zm43.58 0a3.08 3.08 0 0 0-3.085-3.08 3.084 3.084 0 1 0 3.086 3.08zm0 0" stroke-miterlimit="10" fill-rule="evenodd" stroke="#000" stroke-width="1.234" stroke-linejoin="round"/><use height="100%" width="100%" y="202.283" x="224.874" xlink:href="#c" transform="translate(-67.011 -255.894) scale(1.6254)"/><use height="100%" width="100%" y="202.283" x="231.337" xlink:href="#q" transform="translate(-67.011 -255.894) scale(1.6254)"/><use height="100%" width="100%" y="202.283" x="240.28" xlink:href="#e" transform="translate(-67.011 -255.894) scale(1.6254)"/><use height="100%" width="100%" y="202.22" x="276.381" xlink:href="#d" transform="translate(-67.011 -255.894) scale(1.6254)"/><path d="M338.157 60.683l1.079-4.324c1.08-4.33 3.244-12.984 0-18.393-3.244-5.41-11.898-7.575-12.978-11.9-1.085-4.33 5.403-10.818 14.057-10.818 8.66 0 19.473 6.489 29.213 4.33 9.733-2.165 18.387-12.984 23.797-10.82 5.41 2.166 7.574 17.309 5.41 25.963-2.166 8.654-8.655 10.82-14.064 14.064-5.41 3.244-9.733 7.574-11.9 9.74l-2.164 2.158" fill="#a6a6a6" fill-rule="evenodd"/><path d="M338.157 60.683l1.079-4.324c1.08-4.33 3.244-12.984 0-18.393-3.244-5.41-11.898-7.575-12.978-11.9-1.085-4.33 5.403-10.818 14.057-10.818 8.66 0 19.473 6.489 29.213 4.33 9.733-2.165 18.387-12.984 23.797-10.82 5.41 2.166 7.574 17.309 5.41 25.963-2.166 8.654-8.655 10.82-14.064 14.064-5.41 3.244-9.733 7.574-11.9 9.74l-2.164 2.158m12.984 45.435l1.08 3.244c1.08 3.25 3.244 9.74 0 15.15-3.245 5.409-11.9 9.733-10.82 15.142 1.087 5.41 11.9 11.899 17.309 15.143l5.41 3.25 4.33-2.164c4.323-2.165 12.977-6.49 19.472-11.9 6.49-5.41 10.813-11.903 9.734-18.392-1.08-6.49-7.575-12.978-10.82-16.23l-3.244-3.243-.114-1.937c-.114-1.943-.343-5.822 1.378-9.29 1.72-3.465 5.39-6.52 8.647-10.43 3.264-3.918 6.115-8.7 7.848-13.683 1.733-4.984 2.343-10.171 1.784-14.444-.56-4.267-2.292-7.626-3.162-9.302l-.863-1.682" stroke-miterlimit="10" fill="none" stroke="#000" stroke-width="1.947" stroke-linejoin="round" stroke-dasharray="3.993"/><path d="M432.499 80.156a3.084 3.084 0 0 0-6.165 0 3.09 3.09 0 0 0 3.086 3.086 3.084 3.084 0 0 0 3.08-3.086zm0 0" stroke-miterlimit="10" fill-rule="evenodd" stroke="#000" stroke-width="1.234" stroke-linejoin="round"/><use height="100%" width="100%" y="202.424" x="297.26" xlink:href="#e" transform="translate(-67.011 -255.894) scale(1.6254)"/><use height="100%" width="100%" y="199.175" x="300.947" xlink:href="#r" transform="translate(-67.011 -255.894) scale(1.6254)"/><path d="M344.2 154.51l44.579 6.166" stroke-miterlimit="10" fill="none" stroke="#000" stroke-width=".649" stroke-linejoin="round"/><path d="M388.779 160.676l-7.67-3.79-.743 5.359zm0 0" stroke-miterlimit="10" fill-rule="evenodd" stroke="#000" stroke-width=".649" stroke-linejoin="round"/><use height="100%" width="100%" y="186.347" x="258.878" xlink:href="#k" transform="translate(-67.011 -255.894) scale(1.6254)"/><text style="line-height:8.53638363px" x="365.09" y="192.255" font-weight="400" font-size="13.658" letter-spacing="0" word-spacing="0" font-family="sans-serif" stroke-width=".341"><tspan x="365.09" y="192.255"> <tspan x="365.09" y="192.255">Рис. 2б</tspan> </tspan></text><text style="line-height:18.75px" x="288.351" y="157.988" font-weight="400" font-size="15" letter-spacing="0" word-spacing="0" font-family="sans-serif" stroke-width=".75"><tspan x="288.351" y="157.988"> <tspan x="288.351" y="157.988" style="-inkscape-font-specification:'Times New Roman, '" font-family="Times New Roman">вершина</tspan> </tspan></text><text style="line-height:8.53638363px" x="68.078" y="193.27" font-weight="400" font-size="13.658" letter-spacing="0" word-spacing="0" font-family="sans-serif" stroke-width=".341"><tspan x="68.078" y="193.27"> <tspan x="68.078" y="193.27">Рис. 2a</tspan> </tspan></text></svg>