<svg xmlns="http://www.w3.org/2000/svg" xmlns:xlink="http://www.w3.org/1999/xlink" width="549.05" height="271.132" viewBox="0 0 411.78786 203.34883" version="1.2"><defs><symbol overflow="visible" id="a"><path d="M.14-3.578c.11-.031.172-.031.266-.031.516 0 .656.218 1.063 1.75.156.593.36 1.64.36 1.78a.637.637 0 0 1-.188.454c-.266.375-.454.594-.547.703-.188.203-.297.281-.407.281-.062 0-.125-.03-.218-.109-.14-.11-.235-.156-.328-.156a.354.354 0 0 0-.36.36c0 .218.203.39.453.39.579 0 1.75-1.344 2.72-3.11.608-1.109.858-1.75.858-2.187a.5.5 0 0 0-.484-.5c-.219 0-.36.14-.36.344 0 .125.079.218.25.343.173.094.235.172.235.297 0 .36-.328 1.063-1.094 2.328l-.171-1.046c-.141-.782-.641-2.266-.766-2.266h-.047c0 .015-.047.015-.078.015-.078 0-.406.063-.875.157-.047 0-.156.031-.281.047zm0 0"/></symbol><clipPath id="b"><path d="M397.41 350h99.434v113.16H397.41zm0 0"/></clipPath><clipPath id="c"><path d="M408.652 496.11h76.953v79.656h-76.953zm0 0"/></clipPath></defs><use xlink:href="#a" x="443.731" y="356.421" width="100%" height="100%" transform="matrix(1.61095 0 0 1.61095 -640.527 -565.675)"/><path d="M67.691 163.341L41.387 152.31l-14.736-12.834-4.271-32.262 30.297-3.818 33.836-4.543-7.501-9.376L40.042 67.9l-28.753-2.13 13.96-13.506 3.565-20.807 23.863 7.979 22.578-7.526 11.283-15.053 24.97 5.173-1.404 13.737-18.254 13.19-26.399 3.914 53.363 7.853 12.919 14.02-12.73 19.634 15.478 16.473-18.662 18.83-63.142 11.339 46.472 9.986z" fill="none" stroke="#000" stroke-width="1.93" stroke-linejoin="round" stroke-miterlimit="10"/><g clip-path="url(#b)" transform="matrix(1.61095 0 0 1.61095 -640.527 -565.675)" fill="none" stroke="#000" stroke-width=".4" stroke-linejoin="round" stroke-miterlimit="10"><path d="M397.61 402.262h99.035m-54.31-51.117v111.812M397.61 402.262h99.035m-54.31-51.117v111.812" stroke-width=".399332"/></g><use xlink:href="#a" x="443.731" y="356.421" width="100%" height="100%" transform="matrix(1.61095 0 0 1.61095 -383.382 -566.271)"/><text y="260.288" x="94.155" style="line-height:18.75px" font-weight="400" font-size="30" font-family="sans-serif" letter-spacing="0" word-spacing="0" stroke-width=".75" transform="translate(-69.38 -58.652)"><tspan y="1.5" x="106.958"><tspan y="260.288" x="94.155" font-size="15">Y-</tspan><tspan y="260.288" x="106.958" font-size="15">монотонный</tspan></tspan></text><g><g clip-path="url(#c)" transform="matrix(1.61095 0 0 1.61095 -387.154 -776.576)"><path d="M457.61 496.707l-21.153 1.664-4.8 13.668-9.442 5.469-12.965 28.082 7.664 7.648 13.563 4.121 14.738-17.07 15.922 10.008-11.446 17.57 15.516 7.301 15.34-16.559 4.457-21.367-8.738-8.547-14.364-8.312zm0 0" fill="none" stroke="#000" stroke-width="1.197996" stroke-linejoin="round" stroke-miterlimit="10"/></g><path d="M355.713 109.922h34.214" fill="red" stroke="red" stroke-width=".893295"/><path d="M389.927 109.922h21.86M355.713 109.922h-39.695" fill="none" stroke="#000" stroke-width=".893295"/><path d="M316.018 109.922l-36.434-.496" fill="none" stroke="red" stroke-width=".893295"/><path d="M279.584 109.426h-32.682" fill="none" stroke="#000" stroke-width="1.33756038"/><text y="259.85" x="329.723" style="line-height:18.75px" font-weight="400" font-size="30" font-family="sans-serif" letter-spacing="0" word-spacing="0" stroke-width=".75" transform="translate(-69.38 -58.652)"><tspan y="-1.5" x="369.039"><tspan y="259.85" x="329.723" font-size="15">Не </tspan><tspan y="259.85" x="355.006" font-size="15">y-</tspan><tspan y="259.85" x="369.039" font-size="15">монотонный</tspan></tspan></text></g><path d="M328.08 179.97V.146" fill="none" stroke="#000" stroke-width=".706"/></svg>