<svg xmlns="http://www.w3.org/2000/svg" xmlns:xlink="http://www.w3.org/1999/xlink" width="729.449" height="914.645" viewBox="0 0 547.087 685.984" version="1.2"><defs><symbol overflow="visible" id="b"><path d="M.188-3.61h.265c.36 0 .438.141.563.97.093.624.203 1.968.203 2.484 0 .25.015.312.078.312.219 0 1.062-.937 1.969-2.219.312-.437.546-1.03.546-1.359 0-.281-.234-.531-.5-.531-.203 0-.328.125-.328.312 0 .141.047.25.22.391.108.11.155.172.155.266 0 .421-.593 1.406-1.234 2.078l-.266.281c-.062-1.266-.125-1.734-.234-2.39-.188-.922-.188-.938-.266-.938a.407.407 0 0 0-.171.047c-.172.031-.657.125-1 .187zm0 0"/></symbol><symbol overflow="visible" id="c"><path d="M.14-3.61h.188s.031 0 .078-.015c.25-.016.344.078.406.406.094.516.204 1.469.235 2.172l.031.781c.016.36.047.422.125.422.094 0 .25-.218.563-.844.046-.093.234-.406.5-.875l.796-1.406.266 2.86c.016.25.031.265.094.265.062 0 .156-.078.406-.375 0-.015.047-.062.078-.11 1.219-1.452 1.89-2.577 1.89-3.155 0-.266-.187-.47-.452-.47-.219 0-.36.126-.36.313 0 .11.047.188.188.313.14.14.203.234.203.344 0 .375-.313.859-1.484 2.328l-.282-3.156c0-.094-.015-.126-.078-.126-.047 0-.062.016-.11.094L1.704-1.125a26.95 26.95 0 0 0-.219-2.203c-.109-.547-.125-.625-.234-.625-.047 0-.156.031-.266.062-.093.047-.312.079-.609.125-.031 0-.125.016-.234.032zm0 0"/></symbol><symbol overflow="visible" id="d"><path d="M4.125-1.047c-.469.578-.594.703-.734.703-.063 0-.11-.047-.11-.156 0-.047 0-.047.172-.688l.703-2.687H3.5c-.516 1.39-.578 1.531-.984 2.188-.532.859-.97 1.312-1.266 1.312-.11 0-.188-.094-.188-.219 0-.047 0-.062.016-.094l.813-3.25-.032-.015c-.5.125-.828.187-1.343.25v.125c.343 0 .359 0 .437.047.063.015.11.11.11.172 0 .062-.047.28-.125.593L.594-1.5C.438-.86.375-.562.375-.39c0 .312.156.484.469.484.64 0 1.11-.485 2.14-2.203-.25.953-.39 1.578-.39 1.765 0 .266.156.422.422.422.421 0 .625-.172 1.234-1.047zm0 0"/></symbol><symbol overflow="visible" id="f"><path d="M1.781-3.344c.047-.094.047-.156.047-.187 0-.219-.203-.36-.39-.36-.282 0-.344.22-.375.313L.219-.531c0 .015-.016.062-.016.094 0 .078.188.124.234.124.016 0 .047 0 .094-.093zm0 0"/></symbol><clipPath id="a"><path d="M402 109.578h96.102V187H402zm0 0"/></clipPath><clipPath id="e"><path d="M402 217.684h96.102V295H402zm0 0"/></clipPath></defs><g clip-path="url(#a)" transform="matrix(2.95054 0 0 2.95054 -1045.116 -291.369)"><path d="M402.746 149.89l20.54-19.855-2.65-19.86 19.22 8.166 12.566 14.05 8.633-21.551 25.387 3.197 7.97 18.419-17.444 50.523-12.615-31.562-24.568 8.83 7.143 11.042-10.389 14.344z" fill="none" stroke="#000" stroke-width="1.197996" stroke-linejoin="round" stroke-miterlimit="10"/></g><path d="M148.792 150.89c0-3.09-2.501-5.602-5.59-5.602a5.607 5.607 0 0 0-5.601 5.601c0 3.089 2.512 5.59 5.601 5.59a5.588 5.588 0 0 0 5.59-5.59zm0 0M209.405 92.305a5.6 5.6 0 0 0-5.602-5.602 5.59 5.59 0 0 0-5.59 5.602 5.588 5.588 0 0 0 5.59 5.59c3.09 0 5.602-2.501 5.602-5.59zm0 0" fill-rule="evenodd" stroke="#000" stroke-width="2.23945986" stroke-linejoin="round" stroke-miterlimit="10"/><path d="M248.511 256.348a5.607 5.607 0 0 0-5.601-5.602c-3.09 0-5.59 2.513-5.59 5.602 0 3.089 2.5 5.601 5.59 5.601a5.607 5.607 0 0 0 5.601-5.601" fill-rule="evenodd"/><path d="M248.511 256.348a5.607 5.607 0 0 0-5.601-5.602c-3.09 0-5.59 2.513-5.59 5.602 0 3.089 2.5 5.601 5.59 5.601a5.607 5.607 0 0 0 5.601-5.601zm0 0" fill="none" stroke="#000" stroke-width="2.23945986" stroke-linejoin="round" stroke-miterlimit="10"/><use height="100%" width="100%" y="151.496" x="395.557" xlink:href="#b" transform="matrix(2.95054 0 0 2.95054 -1045.116 -291.369)"/><use height="100%" width="100%" y="130.836" x="413.665" xlink:href="#c" transform="matrix(2.95054 0 0 2.95054 -1045.116 -291.369)"/><use height="100%" width="100%" y="187.293" x="439.786" xlink:href="#d" transform="matrix(2.95054 0 0 2.95054 -1045.116 -291.369)"/><path d="M203.803 92.305l39.107 164.043" fill="none" stroke="#000" stroke-width="1.17726546" stroke-linejoin="round" stroke-miterlimit="10" stroke-dasharray=".998"/><g><g clip-path="url(#e)" transform="translate(-1192.188 -364.483) scale(3.27962)"><path d="M402.742 257.996l20.543-19.855 6.08-11.918 9.563 12.704 12.75-11.827 11.788 29.9 15.052-33.292 18.188 14.559-7.102 40.245-27.995-5.803-40.98-22.456-5.957 12.38 30.557 13.036-8.69 18.07z" fill="none" stroke="#000" stroke-width="1.197996" stroke-linejoin="round" stroke-miterlimit="10"/></g><path d="M134.88 481.646a6.214 6.214 0 0 0-6.226-6.214 6.211 6.211 0 0 0-6.214 6.214 6.214 6.214 0 0 0 6.214 6.226 6.217 6.217 0 0 0 6.226-6.226zm0 0M202.24 416.527a6.211 6.211 0 0 0-6.213-6.213c-3.434 0-6.226 2.78-6.226 6.213a6.233 6.233 0 0 0 6.226 6.227c3.433 0 6.213-2.793 6.213-6.227zm0 0" fill-rule="evenodd" stroke="#000" stroke-width="2.48923158" stroke-linejoin="round" stroke-miterlimit="10"/><path d="M245.708 598.867a6.211 6.211 0 0 0-6.213-6.214c-3.434 0-6.227 2.78-6.227 6.214a6.225 6.225 0 0 0 6.227 6.226 6.214 6.214 0 0 0 6.213-6.226" fill-rule="evenodd"/><path d="M245.708 598.867a6.211 6.211 0 0 0-6.213-6.214c-3.434 0-6.227 2.78-6.227 6.214a6.225 6.225 0 0 0 6.227 6.226 6.214 6.214 0 0 0 6.213-6.226zm0 0" fill="none" stroke="#000" stroke-width="2.48923158" stroke-linejoin="round" stroke-miterlimit="10"/><use height="100%" width="100%" y="259.604" x="395.556" xlink:href="#b" transform="translate(-1192.188 -364.483) scale(3.27962)"/><use height="100%" width="100%" y="239.741" x="414.067" xlink:href="#c" transform="translate(-1192.188 -364.483) scale(3.27962)"/><use height="100%" width="100%" y="295.204" x="439.785" xlink:href="#d" transform="translate(-1192.188 -364.483) scale(3.27962)"/><path d="M196.027 416.527l43.468 182.34" fill="none" stroke="#000" stroke-width="1.30856838" stroke-linejoin="round" stroke-miterlimit="10" stroke-dasharray=".998"/><path d="M173.992 496.853a6.214 6.214 0 0 0-6.214-6.227 6.225 6.225 0 0 0-6.226 6.227c0 3.433 2.793 6.213 6.226 6.213a6.211 6.211 0 0 0 6.214-6.213zm0 0" fill-rule="evenodd" stroke="#000" stroke-width="2.48923158" stroke-linejoin="round" stroke-miterlimit="10"/><path d="M128.654 481.646l39.124 15.207" fill="none" stroke="#000" stroke-width="1.30856838" stroke-linejoin="round" stroke-miterlimit="10"/><use height="100%" width="100%" y="262.218" x="417.992" xlink:href="#b" transform="translate(-1192.188 -364.483) scale(3.27962)"/><use height="100%" width="100%" y="258.968" x="421.966" xlink:href="#f" transform="translate(-1192.188 -364.483) scale(3.27962)"/></g><text style="line-height:18.75px" x="232.066" y="329.57" font-weight="400" font-size="30" font-family="sans-serif" letter-spacing="0" word-spacing="0" stroke-width=".75" transform="translate(0 -18.02)"><tspan x="232.066" y="329.57"><tspan x="232.066" y="329.57">Рис.1а</tspan></tspan></text><text style="line-height:18.75px" x="232.184" y="671.634" font-weight="400" font-size="30" font-family="sans-serif" letter-spacing="0" word-spacing="0" stroke-width=".75" transform="translate(0 -18.02)"><tspan x="232.184" y="671.634"><tspan x="232.184" y="671.634">Рис.1б</tspan></tspan></text></svg>