<svg xmlns="http://www.w3.org/2000/svg" xmlns:xlink="http://www.w3.org/1999/xlink" width="492.316" height="427.69" viewBox="0 0 369.23674 320.76767" version="1.2"><defs><symbol overflow="visible" id="c"><path d="M3.203-.969c-.64.516-.922.672-1.312.672-.5 0-.829-.328-.829-.812 0-.141.016-.266.079-.563l.25-.031c1.343-.188 2.296-.86 2.296-1.64 0-.376-.265-.61-.718-.61C1.688-3.953.28-2.47.28-1.125.281-.406.766.094 1.453.094c.64 0 1.328-.36 1.86-.969zM1.36-2.25c.313-.797.97-1.5 1.422-1.5.188 0 .313.156.313.36 0 .28-.172.593-.438.859-.344.312-.672.484-1.453.672zm0 0"/></symbol><symbol overflow="visible" id="e"><path d="M.188-3.61h.265c.36 0 .438.141.563.97.093.624.203 1.968.203 2.484 0 .25.015.312.078.312.219 0 1.062-.937 1.969-2.219.312-.437.546-1.03.546-1.359 0-.281-.234-.531-.5-.531-.203 0-.328.125-.328.312 0 .141.047.25.22.391.108.11.155.172.155.266 0 .421-.593 1.406-1.234 2.078l-.266.281c-.062-1.266-.125-1.734-.234-2.39-.188-.922-.188-.938-.266-.938a.407.407 0 0 0-.171.047c-.172.031-.657.125-1 .187zm0 0"/></symbol><symbol overflow="visible" id="h"><path d="M2.5.14C3.188.095 3.531.017 4.031-.265c1.328-.75 2.235-2.203 2.235-3.609 0-1.203-.86-2.094-2.063-2.094-.719 0-1.516.375-2.234 1.016C1.062-4.11.53-3.031.53-1.984c0 .734.281 1.343.766 1.718.219.188.422.282.812.375-.812.72-.89.782-1.578 1.266l.094.14a2.036 2.036 0 0 1 1.016-.28c.187 0 .453.062.843.156.547.156 1.032.25 1.36.25.484 0 1.11-.235 1.578-.594.203-.156.328-.281.562-.61l-.14-.093c-.5.515-.86.687-1.516.687-.234 0-.422-.031-1.094-.203-.468-.11-.89-.187-.937-.187-.047.015-.063.015-.063.015h-.218zm1.656-5.812c.719 0 1.157.531 1.157 1.375 0 .953-.422 2.266-.985 3.094-.5.703-1.047 1.047-1.703 1.047-.734 0-1.14-.547-1.14-1.485 0-.843.437-2.187.984-2.968.5-.72 1.047-1.063 1.687-1.063zm0 0"/></symbol><symbol overflow="visible" id="d"><path d="M1.719-3.063l-.032-.015c-.609.11-.968.172-1.171.172v.125h.187l.047-.016c.047 0 .188.031.219.063a.239.239 0 0 1 .062.156c0 .078-.047.265-.125.562L.406.016C.172.969.016 1.28-.266 1.28c-.078 0-.125-.031-.125-.078 0-.031 0-.047.032-.078a.19.19 0 0 0 .062-.14c0-.141-.125-.266-.281-.266-.172 0-.281.125-.281.297 0 .25.218.421.546.421.61 0 1.016-.53 1.297-1.625zm-.14-1.5c-.188 0-.329.157-.329.375 0 .22.125.375.328.375.188 0 .344-.171.344-.359 0-.203-.156-.39-.344-.39zm0 0"/></symbol><symbol overflow="visible" id="f"><path d="M4.797-.813c-.063.079-.125.157-.14.172-.204.25-.345.375-.454.375-.047 0-.078-.046-.078-.109 0-.031.016-.14.063-.313l.468-1.75a.792.792 0 0 0 .032-.203c0-.25-.172-.437-.422-.437-.125 0-.266.047-.438.156-.344.219-.625.563-1.11 1.328.188-.531.282-.922.282-1.062 0-.25-.156-.422-.39-.422-.422 0-.922.469-1.563 1.469l.406-1.454-.016-.015c-.39.094-.53.11-1.109.219v.109H.5c.172 0 .266.047.266.156 0 .078-.157.719-.407 1.594-.171.578-.187.64-.28 1h.53c.329-1.11.438-1.36.672-1.734.39-.594.813-.97 1.047-.97.094 0 .14.063.14.173 0 .062-.218.906-.655 2.531h.515c.281-1.094.422-1.438.766-1.938.344-.468.703-.765.906-.765.063 0 .125.062.125.14 0 .032 0 .11-.047.235l-.406 1.61c-.063.265-.078.39-.078.452 0 .22.094.329.281.329.313 0 .625-.235 1-.75l.031-.047zm0 0"/></symbol><symbol overflow="visible" id="g"><path d="M1.547-.797l-.281.36C1.14-.329 1.03-.25.969-.25c-.047 0-.11-.063-.11-.11 0-.062.032-.171.079-.296 0-.031.015-.078.03-.125v-.031l.626-2.25-.032-.016c-.703.14-.843.156-1.109.172v.125c.375 0 .438.015.438.156 0 .063-.016.172-.063.313L.5-1.079c-.11.406-.156.625-.156.75 0 .266.11.406.312.406.328 0 .578-.203.985-.797zm-.063-3.765c-.187 0-.328.171-.328.375 0 .218.14.375.344.375.172 0 .344-.172.344-.36 0-.203-.172-.39-.36-.39zm0 0"/></symbol><symbol overflow="visible" id="j"><path d="M2.89-.766l-.109.188c-.125.219-.203.297-.312.297-.14 0-.297-.235-.563-.906a8.124 8.124 0 0 0-.265-.61c1.03-.906 1.25-1.047 1.578-1.078v-.11H1.938v.11h.109c.172 0 .281.047.281.125 0 .14-.36.484-1 .984-.11.079-.187.141-.297.22L1.86-4.72l-.03-.047c-.407.094-.673.141-1.095.188v.125c.344-.016.47.031.485.172-.016.11-.063.297-.157.625-.03.094-.046.172-.062.234l-.016.063L.094 0h.531l.328-1.25.297-.234c.11.312.297.734.422.984.219.438.344.578.547.578.281 0 .453-.172.765-.765zm0 0"/></symbol><clipPath id="b"><path d="M444 184h29v22.863h-29zm0 0"/></clipPath><clipPath id="a"><path d="M402.344 128.172H470V204h-67.656zm0 0"/></clipPath><clipPath id="i"><path d="M488 128.172h3.91v78.691H488zm0 0"/></clipPath></defs><path d="M47.381 57.463h311.033l5.637 176.228H15.637" fill="#b0b0b0" fill-rule="evenodd"/><path d="M47.381 57.463h311.033l5.637 176.228H15.637zm0 0" fill="none" stroke="#b0b0b0" stroke-width="1.6450969500000001" stroke-linejoin="round" stroke-miterlimit="10"/><g transform="matrix(4.12305 0 0 4.12305 -1658.931 -530.86)" clip-path="url(#b)"><path d="M448.321 210.505l7.787-25.071 14.916 21.962" fill="none" stroke="#000" stroke-width="1.197996" stroke-linejoin="round" stroke-miterlimit="10"/></g><path d="M230.326 233.691c0-4.316-3.512-7.827-7.828-7.827-4.316 0-7.827 3.511-7.827 7.827 0 4.317 3.51 7.812 7.827 7.812 4.316 0 7.828-3.495 7.828-7.812zm0 0M259.332 57.463a7.808 7.808 0 0 0-7.811-7.81c-4.333 0-7.828 3.494-7.828 7.81a7.815 7.815 0 0 0 7.828 7.828c4.316 0 7.81-3.495 7.81-7.828zm0 0" fill-rule="evenodd" stroke="#000" stroke-width="3.12939495" stroke-linejoin="round" stroke-miterlimit="10"/><path d="M358.414 57.463H47.38m316.67 176.228H15.637" fill="none" stroke="#000" stroke-width="1.6450969500000001" stroke-linejoin="round" stroke-miterlimit="10" stroke-dasharray=".998"/><path d="M251.52 57.463l-29.022 176.228" fill="none" stroke="#000" stroke-width="1.6450969500000001" stroke-linejoin="round" stroke-miterlimit="10"/><use height="100%" width="100%" y="191.778" x="407.445" xlink:href="#c" transform="matrix(4.12305 0 0 4.12305 -1658.931 -530.86)"/><use height="100%" width="100%" y="193.218" x="412.463" xlink:href="#d" transform="matrix(4.12305 0 0 4.12305 -1658.931 -530.86)"/><use height="100%" width="100%" y="140.411" x="449.978" xlink:href="#e" transform="matrix(4.12305 0 0 4.12305 -1658.931 -530.86)"/><use height="100%" width="100%" y="141.754" x="453.952" xlink:href="#f" transform="matrix(4.12305 0 0 4.12305 -1658.931 -530.86)"/><use height="100%" width="100%" y="189.934" x="445.746" xlink:href="#e" transform="matrix(4.12305 0 0 4.12305 -1656.31 -526.49)"/><use height="100%" width="100%" y="191.373" x="449.72" xlink:href="#g" transform="matrix(4.12305 0 0 4.12305 -1656.31 -526.49)"/><path d="M333.403 2.35l-81.882 55.113L240.544.876M55.66 11.61L2.43 306.988" fill="none" stroke="#000" stroke-width="4.9394139" stroke-linejoin="round" stroke-miterlimit="10"/><use height="100%" width="100%" y="166.257" x="445.165" xlink:href="#h" transform="matrix(4.12305 0 0 4.12305 -1658.931 -530.86)"/><g transform="matrix(4.12305 0 0 4.12305 -1658.931 -530.86)" clip-path="url(#i)"><path d="M488.84 131.684l2.473 77.27" fill="none" stroke="#000" stroke-width="1.198" stroke-linejoin="round" stroke-miterlimit="10"/></g><use height="100%" width="100%" y="191.647" x="481.139" xlink:href="#c" transform="matrix(4.12305 0 0 4.12305 -1658.931 -530.86)"/><use height="100%" width="100%" y="193.362" x="485.113" xlink:href="#j" transform="matrix(4.12305 0 0 4.12305 -1658.931 -530.86)"/></svg>